<svg width="910" height="535" viewBox="0 0 910 535" fill="none" xmlns="http://www.w3.org/2000/svg">
<path d="M171.053 0.00322365C172.495 0.0027873 173.936 0.00191121 175.378 0.00063448C179.33 -0.00159789 183.281 0.00239361 187.233 0.00741255C191.498 0.0117349 195.764 0.0102694 200.029 0.00951027C207.415 0.00898617 214.802 0.0121211 222.188 0.0177481C232.868 0.0258785 243.548 0.0284799 254.227 0.0297361C271.555 0.0319242 288.882 0.0385777 306.21 0.0480387C323.041 0.0572191 339.872 0.0642969 356.703 0.0685465C358.259 0.0689406 358.259 0.0689406 359.847 0.0693427C365.053 0.0706477 370.258 0.0719114 375.464 0.0731546C418.643 0.0835196 461.821 0.101131 505 0.123478C503.703 2.77907 502.402 5.04752 500.531 7.33832C500.048 7.93524 499.564 8.53215 499.066 9.14716C498.549 9.77872 498.032 10.4103 497.5 11.061C496.407 12.4117 495.314 13.7633 494.223 15.1157C493.405 16.1284 493.405 16.1284 492.571 17.1616C490.32 19.9729 488.123 22.824 485.938 25.686C481.144 31.9535 476.275 38.1598 471.391 44.3574C469.091 47.2772 466.796 50.2005 464.5 53.1235C461.74 56.6369 458.98 60.1496 456.215 63.6586C451.725 69.3587 447.248 75.0683 442.812 80.811C441.662 82.2998 440.509 83.7868 439.312 85.2389C437.868 87.168 437.868 87.168 436.892 89.8188C435.125 93.3661 433.405 96.0687 430 98.1235C421.857 100.351 412.912 99.5377 404.557 99.4165C401.922 99.4183 399.287 99.4245 396.652 99.4363C390.981 99.453 385.312 99.43 379.642 99.38C371.433 99.308 363.226 99.2999 355.017 99.3076C341.683 99.3187 328.35 99.2831 315.017 99.2158C302.092 99.1507 289.168 99.1 276.244 99.0742C275.448 99.0726 274.653 99.071 273.833 99.0693C265.138 99.0523 256.444 99.04 247.749 99.0318C246.984 99.0311 246.219 99.0303 245.431 99.0296C240.842 99.0252 240.842 99.0252 236.254 99.0214C227.313 99.0142 218.372 98.9929 209.432 98.9457C203.821 98.9163 198.21 98.8964 192.599 98.8838C189.365 98.876 186.132 98.8613 182.898 98.8365C179.386 98.8102 175.874 98.8023 172.361 98.7988C171.349 98.7864 170.337 98.7741 169.294 98.7613C155.984 98.7987 145.545 103.657 135.812 112.623C126.925 121.903 122.161 133.65 121.688 146.436C122.01 160.047 127.368 172.174 136.68 182.053C150.414 194.308 166.209 194.566 183.582 194.508C185.648 194.512 187.714 194.518 189.78 194.525C194.211 194.536 198.642 194.539 203.074 194.534C210.1 194.527 217.126 194.543 224.152 194.563C239.08 194.6 254.009 194.613 268.938 194.623C285.028 194.635 301.118 194.65 317.208 194.694C324.172 194.712 331.136 194.716 338.1 194.709C342.46 194.708 346.82 194.719 351.181 194.733C353.18 194.737 355.178 194.736 357.177 194.729C399.654 194.597 437.126 207.35 467.688 237.373C493.707 263.755 508.52 300.054 508.312 337.186C508.308 338.255 508.303 339.325 508.298 340.426C508.059 356.931 505.312 372.522 500 388.124C499.67 389.126 499.67 389.126 499.333 390.149C494.325 405.203 486.802 418.644 477 431.124C475.902 432.527 475.902 432.527 474.781 433.959C451.998 462.438 417.905 481.049 381.656 485.405C373.609 486.223 365.595 486.261 357.517 486.244C355.969 486.244 354.421 486.245 352.873 486.246C348.645 486.249 344.417 486.245 340.189 486.24C335.62 486.235 331.051 486.237 326.482 486.237C318.574 486.238 310.666 486.235 302.759 486.229C291.326 486.221 279.893 486.218 268.46 486.217C249.909 486.215 231.358 486.208 212.807 486.199C194.791 486.19 176.775 486.183 158.759 486.178C157.647 486.178 156.536 486.178 155.391 486.178C149.816 486.176 144.241 486.175 138.666 486.174C92.4439 486.163 46.2219 486.146 0 486.124C0 485.464 0 484.804 0 484.124C0.66 484.124 1.32 484.124 2 484.124C2.3959 483.268 2.3959 483.268 2.7998 482.395C4.07699 479.978 5.53954 477.941 7.20312 475.772C8.16871 474.508 8.16871 474.508 9.15381 473.219C9.84555 472.321 10.5373 471.424 11.25 470.499C11.9637 469.567 12.6773 468.636 13.4126 467.676C19.1886 460.149 25.0092 452.656 30.8438 445.174C43.01 429.571 54.9938 413.82 66.875 397.999C67.3685 397.342 67.8621 396.685 68.3706 396.009C70.3128 393.416 72.2026 390.82 74 388.124C76.1518 387.749 76.1518 387.749 78.8822 387.75C79.9203 387.743 80.9584 387.736 82.028 387.729C83.1774 387.736 84.3267 387.744 85.511 387.752C86.7252 387.748 87.9394 387.744 89.1904 387.74C92.572 387.732 95.9531 387.738 99.3346 387.749C102.978 387.758 106.621 387.75 110.264 387.743C116.582 387.734 122.9 387.735 129.218 387.743C138.366 387.755 147.515 387.746 156.663 387.731C171.521 387.707 186.38 387.694 201.238 387.69C202.128 387.689 203.018 387.689 203.935 387.689C213.853 387.686 223.77 387.686 233.688 387.687C237.278 387.687 240.868 387.687 244.458 387.688C245.787 387.688 245.787 387.688 247.142 387.688C261.932 387.689 276.722 387.674 291.511 387.647C300.631 387.631 309.75 387.629 318.869 387.644C325.127 387.654 331.384 387.649 337.642 387.633C341.248 387.624 344.855 387.622 348.461 387.637C352.381 387.654 356.3 387.639 360.219 387.622C361.346 387.632 362.473 387.642 363.635 387.652C376.776 387.533 388.93 382.911 398.688 373.999C409.788 362.111 413.011 348.085 412.535 332.338C411.681 320.515 404.562 310.936 396 303.124C385.946 295.087 375.995 291.969 363.275 291.985C361.976 291.981 361.976 291.981 360.65 291.977C357.753 291.969 354.857 291.967 351.96 291.966C349.88 291.961 347.8 291.956 345.72 291.95C341.241 291.939 336.763 291.931 332.284 291.924C325.188 291.914 318.092 291.893 310.996 291.871C290.817 291.809 270.638 291.755 250.459 291.722C239.313 291.704 228.168 291.675 217.023 291.634C211.132 291.613 205.242 291.598 199.352 291.595C193.8 291.593 188.248 291.577 182.696 291.551C180.672 291.544 178.648 291.542 176.623 291.545C135.327 291.604 97.6093 277.48 67.875 248.436C40.5255 220.715 26.2771 183.747 26.4477 145.135C26.5853 133.14 27.617 121.671 31 110.123C31.1872 109.456 31.3745 108.788 31.5674 108.1C38.2359 84.7483 50.7558 62.97 67.6191 45.56C68.9492 44.1764 70.2487 42.7636 71.5469 41.35C96.9021 14.535 134.545 -0.0788574 171.053 0.00322365Z" fill="#FEFEFE"/>
<path d="M534.04 0.13803C535.06 0.129932 536.08 0.121834 537.131 0.113491C540.554 0.0949119 543.976 0.126434 547.399 0.157713C549.852 0.154777 552.304 0.148802 554.757 0.140013C560.734 0.126705 566.71 0.145901 572.687 0.180002C579.662 0.218373 586.636 0.219588 593.611 0.219272C606.074 0.219959 618.537 0.254096 631 0.307127C643.058 0.358406 655.117 0.386888 667.175 0.389159C667.916 0.389302 668.657 0.389444 669.42 0.389592C670.159 0.38973 670.899 0.389869 671.661 0.390012C673.15 0.390302 674.639 0.390605 676.128 0.390919C677.23 0.391152 677.23 0.391152 678.355 0.391389C689.883 0.394846 701.412 0.420423 712.94 0.447775C717.1 0.457331 721.259 0.463493 725.419 0.467076C732.656 0.473327 739.892 0.494857 747.129 0.532622C749.521 0.54289 751.912 0.548286 754.304 0.548174C797.906 0.55851 835.709 13.8862 867.188 44.75C893.403 71.2303 909.156 108.85 909.147 146.089C909.151 146.947 909.155 147.804 909.158 148.687C909.169 151.53 909.173 154.373 909.177 157.215C909.183 159.267 909.19 161.318 909.197 163.369C909.218 170.082 909.228 176.795 909.238 183.508C909.242 185.831 909.246 188.154 909.251 190.477C909.27 201.401 909.284 212.326 909.292 223.25C909.302 235.8 909.328 248.35 909.369 260.899C909.399 270.637 909.414 280.375 909.417 290.114C909.419 295.911 909.428 301.709 909.453 307.507C909.654 355.874 904.662 398.903 872 437C871.279 437.856 870.559 438.712 869.816 439.594C862.556 447.981 854.112 454.723 845 461C845.557 464.868 847.246 466.585 850.008 469.266C850.83 470.074 851.653 470.882 852.5 471.715C853.366 472.551 854.233 473.388 855.125 474.25C860.434 479.421 865.623 484.586 870.445 490.218C872.679 492.778 875.068 495.126 877.5 497.5C881.309 501.251 884.92 505.106 888.391 509.172C890.561 511.638 892.899 513.91 895.242 516.211C897.737 518.75 900.038 521.441 902.355 524.141C903.823 525.8 905.339 527.344 906.938 528.875C909 531 909 531 909 533C892.979 533.375 876.959 533.657 860.935 533.829C853.493 533.911 846.053 534.023 838.613 534.207C832.12 534.368 825.629 534.47 819.135 534.505C815.701 534.526 812.273 534.574 808.841 534.692C785.208 535.412 785.208 535.412 776.663 527.557C774.124 524.865 771.808 522.086 769.597 519.12C764.792 512.742 759.194 507.077 753.5 501.5C749.706 497.784 745.999 494.057 742.531 490.031C738.889 485.808 734.98 481.903 731 478C726.382 473.47 721.968 468.87 717.746 463.969C714.814 460.662 711.654 457.593 708.5 454.5C704.067 450.115 699.757 445.722 695.734 440.953C693.431 438.359 690.968 435.935 688.5 433.5C685.468 430.508 682.498 427.508 679.75 424.25C676.224 420.107 672.362 416.325 668.5 412.5C664.156 408.198 659.94 403.897 656 399.219C652.328 395.145 648.367 391.349 644.471 387.49C640.79 383.832 637.278 380.123 633.934 376.152C630.533 372.367 626.871 368.832 623.236 365.273C620.238 362.319 617.369 359.318 614.625 356.125C610.646 351.515 606.34 347.268 602 343C597.071 338.154 592.31 333.27 587.805 328.027C584.38 324.18 580.671 320.61 577 317C571.424 311.517 566.067 305.957 561 300C559.963 298.789 558.925 297.578 557.887 296.368C557.347 295.737 556.806 295.107 556.249 294.457C555.837 293.976 555.425 293.495 555 293C571.021 292.601 587.04 292.302 603.065 292.119C610.507 292.032 617.947 291.913 625.387 291.718C631.88 291.547 638.371 291.438 644.865 291.4C648.299 291.378 651.727 291.328 655.159 291.203C677.666 290.473 677.666 290.473 685.155 296.703C688.684 300.181 691.672 303.941 694.523 307.985C696.593 310.809 698.945 313.118 701.473 315.535C702.247 316.302 703.021 317.068 703.818 317.857C704.929 318.949 704.929 318.949 706.062 320.062C714.566 328.425 714.566 328.425 718.434 332.934C722.691 337.886 727.35 342.419 732 347C737.322 352.242 742.523 357.492 747.387 363.164C749.953 366.084 752.721 368.785 755.5 371.5C759.736 375.672 763.795 379.879 767.535 384.512C769.332 386.337 770.533 387.246 773 388C784.848 385.319 796.134 378.057 803 368C808.459 358.373 812.312 349.522 812.267 338.342C812.274 337.072 812.274 337.072 812.281 335.776C812.294 332.951 812.292 330.127 812.291 327.302C812.297 325.271 812.303 323.24 812.311 321.21C812.329 315.701 812.333 310.193 812.335 304.684C812.336 301.239 812.34 297.794 812.346 294.349C812.364 282.321 812.372 270.292 812.371 258.264C812.369 247.068 812.39 235.873 812.422 224.678C812.448 215.053 812.459 205.428 812.458 195.803C812.457 190.061 812.463 184.318 812.484 178.576C812.503 173.171 812.504 167.766 812.489 162.361C812.487 160.384 812.492 158.407 812.504 156.43C812.6 139.613 809.984 127.174 799 114C790.686 105.805 779.184 98.7662 767.233 98.7383C766.099 98.7308 764.966 98.7234 763.798 98.7157C762.562 98.7176 761.327 98.7195 760.054 98.7215C758.721 98.7165 757.387 98.7106 756.054 98.704C752.396 98.6882 748.739 98.6847 745.081 98.6833C741.134 98.6796 737.187 98.6645 733.24 98.6507C726.405 98.6284 719.569 98.6134 712.733 98.6033C702.849 98.5888 692.965 98.5632 683.082 98.535C667.046 98.4895 651.01 98.4529 634.974 98.4219C619.397 98.3917 603.82 98.3573 588.244 98.3174C587.283 98.3149 586.323 98.3125 585.334 98.3099C580.517 98.2975 575.699 98.2851 570.882 98.2726C530.921 98.169 490.961 98.0798 451 98C452.666 93.5275 455.005 90.1743 458 86.5C459.001 85.2505 460.001 84.0005 461 82.75C461.504 82.1222 462.008 81.4945 462.527 80.8477C464.722 78.0936 466.862 75.2986 469 72.5C472.468 67.974 475.971 63.4782 479.5 59C483.373 54.0839 487.211 49.1426 491.02 44.1758C494.658 39.4339 498.327 34.7158 502 30C506.195 24.61 510.39 19.2198 514.562 13.8125C515.306 12.8496 516.05 11.8866 516.816 10.8945C518.918 8.26373 518.918 8.26373 519.954 6.21638C523.505 0.0115685 527.276 0.00783154 534.04 0.13803Z" fill="#FDCA10"/>
<path d="M517 390C529.569 389.368 542.134 388.892 554.716 388.601C560.563 388.461 566.398 388.273 572.239 387.963C614.624 385.773 614.624 385.773 627.975 397.589C633.124 402.549 637.596 408.046 641.744 413.857C646.04 419.842 651.011 425.145 656.25 430.313C656.712 430.771 657.174 431.229 657.649 431.7C659.097 433.136 660.548 434.569 662 436C667.608 441.529 673.143 447.054 678.266 453.043C681.66 456.873 685.353 460.414 689 464C696.134 471.014 702.749 478.186 709 486C624.19 486 539.38 486 452 486C458.718 478.162 458.718 478.162 461.48 475.527C469.216 468.037 476.272 460.42 482.685 451.768C484.029 449.961 485.398 448.173 486.77 446.387C497.888 431.765 506.1 416.466 512.992 399.453C514.293 396.287 515.65 393.145 517 390Z" fill="#FDCA10"/>
</svg>
