<?xml version="1.0" encoding="UTF-8"?>
<svg xmlns="http://www.w3.org/2000/svg" xmlns:xlink="http://www.w3.org/1999/xlink" width="4000" height="2500" viewBox="0 0 4000 2500">
<defs>
<linearGradient id="linear-pattern-0" gradientUnits="userSpaceOnUse" x1="0.000000000000000111" y1="0" x2="1" y2="0" gradientTransform="matrix(3250, -3250, 3250, 3250, 375, 2875)">
<stop offset="0" stop-color="rgb(85.498047%, 85.653687%, 85.205078%)" stop-opacity="1"/>
<stop offset="0.015625" stop-color="rgb(85.68573%, 85.713196%, 85.38208%)" stop-opacity="1"/>
<stop offset="0.03125" stop-color="rgb(86.068726%, 86.003113%, 85.806274%)" stop-opacity="1"/>
<stop offset="0.0625" stop-color="rgb(86.457825%, 86.468506%, 86.303711%)" stop-opacity="1"/>
<stop offset="0.078125" stop-color="rgb(86.846924%, 86.930847%, 86.64093%)" stop-opacity="1"/>
<stop offset="0.09375" stop-color="rgb(87.057495%, 87.185669%, 86.898804%)" stop-opacity="1"/>
<stop offset="0.109375" stop-color="rgb(87.243652%, 87.258911%, 87.084961%)" stop-opacity="1"/>
<stop offset="0.125" stop-color="rgb(87.442017%, 87.478638%, 87.330627%)" stop-opacity="1"/>
<stop offset="0.140625" stop-color="rgb(87.637329%, 87.718201%, 87.588501%)" stop-opacity="1"/>
<stop offset="0.15625" stop-color="rgb(87.998962%, 88.002014%, 87.846375%)" stop-opacity="1"/>
<stop offset="0.171875" stop-color="rgb(88.232422%, 88.40332%, 88.171387%)" stop-opacity="1"/>
<stop offset="0.1875" stop-color="rgb(88.42926%, 88.674927%, 88.439941%)" stop-opacity="1"/>
<stop offset="0.203125" stop-color="rgb(88.62915%, 88.91449%, 88.699341%)" stop-opacity="1"/>
<stop offset="0.21875" stop-color="rgb(88.825989%, 89.157104%, 88.957214%)" stop-opacity="1"/>
<stop offset="0.25" stop-color="rgb(89.170837%, 89.442444%, 89.358521%)" stop-opacity="1"/>
<stop offset="0.265625" stop-color="rgb(89.556885%, 89.743042%, 89.668274%)" stop-opacity="1"/>
<stop offset="0.28125" stop-color="rgb(89.944458%, 90.032959%, 89.802551%)" stop-opacity="1"/>
<stop offset="0.296875" stop-color="rgb(90.197754%, 90.292358%, 90.0177%)" stop-opacity="1"/>
<stop offset="0.3125" stop-color="rgb(90.394592%, 90.534973%, 90.281677%)" stop-opacity="1"/>
<stop offset="0.328125" stop-color="rgb(90.596008%, 90.782166%, 90.545654%)" stop-opacity="1"/>
<stop offset="0.34375" stop-color="rgb(90.792847%, 91.02478%, 90.811157%)" stop-opacity="1"/>
<stop offset="0.359375" stop-color="rgb(91.120911%, 91.31012%, 91.079712%)" stop-opacity="1"/>
<stop offset="0.375" stop-color="rgb(91.389465%, 91.575623%, 91.349792%)" stop-opacity="1"/>
<stop offset="0.390625" stop-color="rgb(91.58783%, 91.824341%, 91.616821%)" stop-opacity="1"/>
<stop offset="0.40625" stop-color="rgb(91.899109%, 91.992188%, 91.841125%)" stop-opacity="1"/>
<stop offset="0.421875" stop-color="rgb(92.173767%, 92.189026%, 92.079163%)" stop-opacity="1"/>
<stop offset="0.4375" stop-color="rgb(92.372131%, 92.43927%, 92.350769%)" stop-opacity="1"/>
<stop offset="0.453125" stop-color="rgb(92.575073%, 92.686462%, 92.617798%)" stop-opacity="1"/>
<stop offset="0.46875" stop-color="rgb(92.774963%, 92.938232%, 92.892456%)" stop-opacity="1"/>
<stop offset="0.484375" stop-color="rgb(92.979431%, 93.186951%, 93.161011%)" stop-opacity="1"/>
<stop offset="0.5" stop-color="rgb(93.177795%, 93.438721%, 93.435669%)" stop-opacity="1"/>
<stop offset="0.515625" stop-color="rgb(93.476868%, 93.717957%, 93.710327%)" stop-opacity="1"/>
<stop offset="0.53125" stop-color="rgb(93.870544%, 94.029236%, 93.995667%)" stop-opacity="1"/>
<stop offset="0.546875" stop-color="rgb(94.17572%, 94.311523%, 94.271851%)" stop-opacity="1"/>
<stop offset="0.5625" stop-color="rgb(94.37561%, 94.566345%, 94.551086%)" stop-opacity="1"/>
<stop offset="0.578125" stop-color="rgb(94.664001%, 94.844055%, 94.828796%)" stop-opacity="1"/>
<stop offset="0.59375" stop-color="rgb(95.059204%, 95.158386%, 95.118713%)" stop-opacity="1"/>
<stop offset="0.609375" stop-color="rgb(95.376587%, 95.446777%, 95.399475%)" stop-opacity="1"/>
<stop offset="0.625" stop-color="rgb(95.578003%, 95.704651%, 95.681763%)" stop-opacity="1"/>
<stop offset="0.640625" stop-color="rgb(95.783997%, 95.957947%, 95.957947%)" stop-opacity="1"/>
<stop offset="0.65625" stop-color="rgb(95.986938%, 96.217346%, 96.24176%)" stop-opacity="1"/>
<stop offset="0.671875" stop-color="rgb(96.188354%, 96.408081%, 96.492004%)" stop-opacity="1"/>
<stop offset="0.6875" stop-color="rgb(96.31958%, 96.517944%, 96.716309%)" stop-opacity="1"/>
<stop offset="0.703125" stop-color="rgb(96.391296%, 96.733093%, 96.931458%)" stop-opacity="1"/>
<stop offset="0.71875" stop-color="rgb(96.595764%, 96.928406%, 97.05658%)" stop-opacity="1"/>
<stop offset="0.734375" stop-color="rgb(96.788025%, 97.04895%, 97.280884%)" stop-opacity="1"/>
<stop offset="0.75" stop-color="rgb(97.045898%, 97.325134%, 97.517395%)" stop-opacity="1"/>
<stop offset="0.765625" stop-color="rgb(97.393799%, 97.573853%, 97.645569%)" stop-opacity="1"/>
<stop offset="0.78125" stop-color="rgb(97.58606%, 97.686768%, 97.866821%)" stop-opacity="1"/>
<stop offset="0.8125" stop-color="rgb(97.831726%, 97.961426%, 98.152161%)" stop-opacity="1"/>
<stop offset="0.828125" stop-color="rgb(98.191833%, 98.266602%, 98.446655%)" stop-opacity="1"/>
<stop offset="0.84375" stop-color="rgb(98.364258%, 98.518372%, 98.699951%)" stop-opacity="1"/>
<stop offset="0.859375" stop-color="rgb(98.406982%, 98.716736%, 98.815918%)" stop-opacity="1"/>
<stop offset="0.875" stop-color="rgb(98.614502%, 98.982239%, 99.107361%)" stop-opacity="1"/>
<stop offset="0.890625" stop-color="rgb(98.817444%, 99.21875%, 99.360657%)" stop-opacity="1"/>
<stop offset="0.90625" stop-color="rgb(99.034119%, 99.308777%, 99.401855%)" stop-opacity="1"/>
<stop offset="0.9375" stop-color="rgb(99.430847%, 99.635315%, 99.708557%)" stop-opacity="1"/>
<stop offset="1" stop-color="rgb(99.816895%, 99.940491%, 99.987793%)" stop-opacity="1"/>
</linearGradient>
</defs>

<path fill-rule="nonzero" fill="rgb(57.815552%, 77.41394%, 84.181213%)" fill-opacity="1" d="M 4161.390625 1868.789062 C 4156.621094 1868.789062 4151.929688 1868.5 4147.25 1867.921875 C 3960.441406 1844.859375 3867.601562 1369.78125 3769.320312 866.789062 C 3660.960938 312.21875 3548.910156 -261.230469 3302.328125 -293.179688 C 3105.78125 -318.730469 2847.371094 5.539062 2512.320312 697.929688 C 2174.378906 1396.261719 1944.738281 1736.929688 1811.648438 1736.960938 C 1805.761719 1736.960938 1800.089844 1736.300781 1794.578125 1734.96875 C 1644.03125 1698.628906 1655.921875 1180.828125 1667.410156 680.078125 C 1677.761719 229.441406 1687.53125 -196.210938 1577.941406 -222.660156 C 1499.808594 -241.53125 1366.519531 -53.671875 1170.410156 351.609375 C 1022.949219 656.320312 884.835938 880.769531 759.910156 1018.738281 C 648.117188 1142.210938 543.5625 1200.03125 449 1190.640625 C 330.640625 1178.871094 226.886719 1065.578125 131.820312 844.308594 C 50.769531 655.679688 -10.292969 418.910156 -59.363281 228.671875 C -113.726562 17.910156 -156.660156 -148.570312 -199.074219 -148.570312 C -220.308594 -148.570312 -241.570312 -106.179688 -264.074219 -18.988281 L -267.707031 -19.929688 C -244.394531 -110.25 -222.585938 -152.320312 -199.074219 -152.320312 C -153.757812 -152.320312 -112.636719 7.101562 -55.730469 227.730469 C -6.695312 417.851562 54.328125 654.460938 135.265625 842.828125 C 229.746094 1062.730469 332.492188 1175.28125 449.371094 1186.910156 C 542.632812 1196.210938 646.179688 1138.769531 757.132812 1016.230469 C 881.816406 878.519531 1019.730469 654.359375 1167.03125 349.980469 C 1364.039062 -57.140625 1498.761719 -245.660156 1578.820312 -226.308594 C 1691.351562 -199.148438 1681.550781 227.96875 1671.160156 680.160156 C 1659.699219 1179.429688 1647.851562 1695.691406 1795.449219 1731.320312 C 1923.578125 1762.179688 2156.941406 1423.679688 2508.941406 696.289062 C 2844.789062 2.28125 3104.53125 -322.539062 3302.808594 -296.898438 C 3552.070312 -264.601562 3664.390625 310.199219 3773 866.078125 C 3871.019531 1367.679688 3963.601562 1841.480469 4147.710938 1864.199219 C 4274.789062 1879.839844 4434.851562 1677.53125 4637.441406 1245.628906 L 4640.839844 1247.21875 C 4444.851562 1665.039062 4287.769531 1868.789062 4161.390625 1868.789062 "/>
<path fill-rule="nonzero" fill="rgb(51.954651%, 59.022522%, 83.187866%)" fill-opacity="1" d="M 4201.46875 1899.851562 C 4196.589844 1899.851562 4191.78125 1899.570312 4186.988281 1898.988281 C 3995.941406 1876.21875 3896.671875 1407.488281 3791.558594 911.230469 C 3675.640625 363.960938 3555.78125 -201.949219 3303.378906 -233.648438 C 3103.238281 -258.769531 2843.828125 57.421875 2510.300781 733.03125 C 2158.230469 1446.21875 1922.550781 1777.328125 1789.871094 1745.429688 C 1636.230469 1708.441406 1643.320312 1199.519531 1650.171875 707.351562 C 1656.339844 264.449219 1662.160156 -153.890625 1550.25 -180.828125 C 1470.519531 -200.03125 1336.648438 -16.699219 1140.988281 379.648438 C 994.414062 676.550781 856.507812 895.300781 731.089844 1029.820312 C 626.617188 1141.871094 527.875 1198.53125 437.261719 1198.539062 C 430.488281 1198.539062 423.773438 1198.21875 417.089844 1197.589844 C 295.898438 1186.101562 188.703125 1074.191406 89.375 855.46875 C 4.699219 669 -59.949219 435 -111.894531 246.96875 C -169.332031 39.070312 -214.71875 -125.210938 -257.996094 -125.210938 C -258.046875 -125.210938 -258.09375 -125.210938 -258.140625 -125.210938 C -279.664062 -125.019531 -300.804688 -83.578125 -322.753906 1.488281 L -326.386719 0.550781 C -303.636719 -87.601562 -281.960938 -128.75 -258.171875 -128.960938 C -258.117188 -128.960938 -258.058594 -128.960938 -258.003906 -128.960938 C -211.863281 -128.960938 -168.40625 28.351562 -108.28125 245.96875 C -56.371094 433.871094 8.234375 667.71875 92.789062 853.921875 C 191.511719 1071.308594 297.707031 1182.511719 417.441406 1193.859375 C 512.261719 1202.839844 616.894531 1146.789062 728.347656 1027.261719 C 853.515625 893.011719 991.214844 674.558594 1137.621094 377.988281 C 1334.171875 -20.148438 1469.390625 -204.121094 1551.128906 -184.480469 C 1665.949219 -156.828125 1660.109375 262.960938 1653.921875 707.398438 C 1647.078125 1198.101562 1640.019531 1705.5 1790.738281 1741.78125 C 1921.441406 1773.308594 2155.75 1442.761719 2506.941406 731.371094 C 2841.261719 54.148438 3101.941406 -262.730469 3303.839844 -237.371094 C 3558.898438 -205.339844 3679.039062 361.898438 3795.230469 910.460938 C 3900.039062 1405.359375 3999.050781 1872.820312 4187.441406 1895.28125 C 4316.710938 1910.671875 4477.390625 1713.308594 4678.890625 1291.910156 L 4682.269531 1293.53125 C 4487.390625 1701.101562 4329.871094 1899.851562 4201.46875 1899.851562 "/>
<path fill-rule="nonzero" fill="rgb(51.673889%, 76.416016%, 88.954163%)" fill-opacity="1" d="M 4242.621094 1930.789062 C 4237.640625 1930.789062 4232.730469 1930.511719 4227.828125 1929.949219 C 4032.421875 1907.488281 3926.609375 1444.878906 3814.601562 955.121094 C 3691.039062 414.890625 3563.269531 -143.71875 3304.878906 -175.128906 C 3101.261719 -199.890625 2840.691406 108.449219 2508.621094 767.53125 C 2173.261719 1433.128906 1942.421875 1757.898438 1804.371094 1757.921875 C 1797.769531 1757.921875 1791.378906 1757.171875 1785.199219 1755.691406 C 1628.398438 1718.039062 1630.679688 1217.78125 1632.890625 733.980469 C 1634.878906 298.648438 1636.761719 -112.550781 1522.46875 -139.988281 C 1441.050781 -159.558594 1306.609375 19.371094 1111.339844 406.929688 C 965.628906 696.121094 827.894531 909.238281 701.972656 1040.359375 C 589.179688 1157.820312 482.484375 1212.941406 384.851562 1204.121094 C 260.742188 1192.941406 150.019531 1082.371094 46.351562 866.089844 C -42.019531 681.710938 -110.304688 450.351562 -165.175781 264.449219 C -225.71875 59.328125 -273.574219 -102.808594 -317.734375 -102.808594 C -317.839844 -102.808594 -317.9375 -102.808594 -318.042969 -102.800781 C -339.847656 -102.429688 -360.851562 -61.921875 -382.265625 21.050781 L -385.898438 20.109375 C -363.699219 -65.890625 -342.15625 -106.140625 -318.109375 -106.550781 C -317.988281 -106.558594 -317.863281 -106.558594 -317.742188 -106.558594 C -270.769531 -106.558594 -224.945312 48.699219 -161.582031 263.378906 C -106.75 449.160156 -38.507812 680.359375 49.734375 864.46875 C 152.78125 1079.449219 262.511719 1189.328125 385.1875 1200.390625 C 481.6875 1209.089844 587.304688 1154.359375 699.269531 1037.769531 C 824.929688 906.910156 962.445312 694.101562 1108 405.238281 C 1304.160156 15.910156 1439.988281 -163.628906 1523.351562 -143.628906 C 1640.519531 -115.5 1638.640625 297.140625 1636.640625 734 C 1634.441406 1216.328125 1632.160156 1715.089844 1786.078125 1752.039062 C 1919.488281 1784.078125 2154.761719 1461.5 2505.269531 765.839844 C 2838.140625 105.199219 3099.828125 -203.78125 3305.339844 -178.851562 C 3566.339844 -147.128906 3694.410156 412.800781 3818.25 954.28125 C 3929.96875 1442.71875 4035.488281 1904.070312 4228.261719 1926.21875 C 4359.789062 1941.421875 4521.078125 1748.871094 4721.511719 1337.828125 L 4724.878906 1339.46875 C 4531.058594 1736.949219 4373.050781 1930.789062 4242.621094 1930.789062 "/>
<path fill-rule="nonzero" fill="rgb(45.985413%, 56.973267%, 82.363892%)" fill-opacity="1" d="M 4284.878906 1961.578125 C 4279.800781 1961.578125 4274.789062 1961.300781 4269.789062 1960.75 C 4069.898438 1938.640625 3957.488281 1481.96875 3838.460938 998.488281 C 3707.148438 465.070312 3571.371094 -86.511719 3306.820312 -117.578125 C 3099.449219 -141.949219 2837.890625 158.679688 2507.179688 801.429688 C 2172.96875 1451.019531 1941.421875 1768.039062 1800.839844 1768.058594 C 1793.851562 1768.058594 1787.089844 1767.28125 1780.539062 1765.710938 C 1620.5 1727.390625 1617.988281 1235.589844 1615.558594 759.988281 C 1613.371094 332.039062 1611.300781 -72.179688 1494.589844 -100.121094 C 1411.558594 -120.011719 1276.378906 54.519531 1081.421875 433.460938 C 936.539062 715.039062 798.972656 922.609375 672.539062 1050.398438 C 559.226562 1164.929688 451.464844 1218.710938 352.292969 1210.230469 C 225.175781 1199.371094 110.835938 1090.101562 2.726562 876.148438 C -89.425781 693.78125 -161.417969 464.941406 -219.265625 281.070312 C -282.945312 78.648438 -333.292969 -81.390625 -378.34375 -81.390625 C -378.507812 -81.390625 -378.671875 -81.378906 -378.835938 -81.378906 C -400.898438 -80.800781 -421.773438 -41.199219 -442.648438 39.691406 L -446.28125 38.75 C -424.632812 -45.128906 -403.234375 -84.488281 -378.933594 -85.128906 C -378.742188 -85.128906 -378.542969 -85.140625 -378.351562 -85.140625 C -330.539062 -85.140625 -282.324219 68.128906 -215.6875 279.941406 C -157.882812 463.679688 -85.941406 692.359375 6.074219 874.460938 C 113.546875 1087.148438 226.902344 1195.761719 352.613281 1206.488281 C 450.644531 1214.878906 557.378906 1161.460938 669.878906 1047.761719 C 796.035156 920.25 933.378906 712.988281 1078.089844 431.738281 C 1273.949219 51.039062 1410.46875 -124.121094 1495.460938 -103.769531 C 1615.03125 -75.140625 1617.109375 330.511719 1619.308594 759.96875 C 1621.730469 1234.128906 1624.238281 1724.429688 1781.410156 1762.058594 C 1917.628906 1794.640625 2153.898438 1479.878906 2503.851562 799.710938 C 2835.351562 155.410156 3098.128906 -145.839844 3307.261719 -121.308594 C 3574.390625 -89.929688 3710.488281 462.929688 3842.109375 997.589844 C 3960.800781 1479.769531 4072.921875 1935.199219 4270.199219 1957.019531 C 4404.019531 1971.71875 4565.921875 1784.160156 4765.339844 1383.339844 L 4768.699219 1385.011719 C 4575.871094 1772.570312 4417.359375 1961.578125 4284.878906 1961.578125 "/>
<path fill-rule="nonzero" fill="rgb(44.827271%, 52.532959%, 79.910278%)" fill-opacity="1" d="M 4328.28125 1992.28125 C 4323.121094 1992.28125 4318.011719 1992.011719 4312.929688 1991.46875 C 4108.441406 1969.738281 3989.320312 1518.789062 3863.210938 1041.351562 C 3724.039062 514.46875 3580.128906 -30.359375 3309.21875 -61.058594 C 3098.058594 -85 2835.488281 208.03125 2506.101562 834.679688 C 2172.910156 1468.558594 1940.578125 1777.949219 1797.429688 1777.96875 C 1790.011719 1777.96875 1782.859375 1777.148438 1775.921875 1775.488281 C 1612.578125 1736.488281 1605.261719 1252.96875 1598.179688 785.371094 C 1591.800781 364.640625 1585.789062 -32.75 1466.601562 -61.21875 C 1381.789062 -81.480469 1245.949219 88.769531 1051.230469 459.21875 C 907.15625 733.308594 769.738281 935.410156 642.800781 1059.910156 C 528.953125 1171.558594 420.121094 1224.058594 319.425781 1215.921875 C 189.214844 1205.410156 71.160156 1097.398438 -41.476562 885.710938 C -137.492188 705.261719 -213.257812 478.839844 -274.136719 296.910156 C -340.992188 97.121094 -393.875 -60.910156 -439.835938 -60.910156 C -440.074219 -60.910156 -440.300781 -60.910156 -440.539062 -60.898438 C -462.855469 -60.121094 -483.59375 -21.410156 -503.9375 57.421875 L -507.570312 56.480469 C -486.464844 -25.300781 -465.207031 -63.789062 -440.667969 -64.648438 C -440.398438 -64.660156 -440.117188 -64.660156 -439.847656 -64.660156 C -391.171875 -64.660156 -340.535156 86.679688 -270.578125 295.71875 C -209.746094 477.519531 -134.035156 703.769531 -38.164062 883.949219 C 73.824219 1094.421875 190.894531 1201.789062 319.726562 1212.179688 C 419.332031 1220.210938 527.144531 1168.078125 640.171875 1057.230469 C 766.835938 933 904.019531 731.21875 1047.910156 457.480469 C 1243.550781 85.300781 1380.769531 -85.550781 1467.46875 -64.859375 C 1589.488281 -35.730469 1595.53125 363.089844 1601.929688 785.308594 C 1608.988281 1251.480469 1616.289062 1733.519531 1776.789062 1771.839844 C 1915.71875 1805.039062 2153.230469 1497.910156 2502.78125 832.941406 C 2832.988281 204.75 3097 -88.859375 3309.640625 -64.789062 C 3583.101562 -33.789062 3727.339844 512.289062 3866.839844 1040.390625 C 3992.609375 1516.539062 4111.410156 1966.289062 4313.328125 1987.738281 C 4449.398438 2002.179688 4611.949219 1819.269531 4810.410156 1428.539062 L 4813.75 1430.238281 C 4621.859375 1808.039062 4462.808594 1992.28125 4328.28125 1992.28125 "/>
<path fill-rule="nonzero" fill="rgb(30.415344%, 37.815857%, 71.356201%)" fill-opacity="1" d="M 4372.820312 2022.851562 C 4367.578125 2022.851562 4362.398438 2022.589844 4357.230469 2022.070312 C 4148.011719 2000.75 4022.101562 1555.308594 3888.789062 1083.710938 C 3741.648438 563.140625 3589.480469 24.839844 3312.050781 -5.460938 C 3097.488281 -28.878906 2833.488281 256.609375 2505.300781 867.410156 C 2173.03125 1485.808594 1939.859375 1787.699219 1794.109375 1787.730469 C 1786.25 1787.730469 1778.671875 1786.851562 1771.320312 1785.101562 C 1604.601562 1745.410156 1592.460938 1269.96875 1580.71875 810.179688 C 1570.148438 396.488281 1560.179688 5.75 1438.449219 -23.230469 C 1351.910156 -43.839844 1215.28125 122.179688 1020.71875 484.28125 C 877.433594 750.960938 740.152344 947.660156 612.695312 1068.929688 C 498.324219 1177.75 388.511719 1229 286.203125 1221.210938 C 152.796875 1211.070312 30.941406 1104.28125 -86.332031 894.738281 C -186.296875 716.128906 -265.90625 492.03125 -329.871094 311.960938 C -399.9375 114.710938 -455.386719 -41.378906 -502.269531 -41.378906 C -502.585938 -41.378906 -502.890625 -41.371094 -503.203125 -41.359375 C -525.757812 -40.359375 -546.359375 -2.539062 -566.179688 74.269531 L -569.8125 73.328125 C -549.242188 -6.371094 -528.128906 -44.011719 -503.367188 -45.109375 C -453.628906 -47.441406 -400.171875 102.851562 -326.335938 310.699219 C -262.417969 490.640625 -182.867188 714.578125 -83.058594 892.910156 C 33.550781 1101.269531 154.433594 1207.429688 286.484375 1217.46875 C 387.660156 1225.171875 496.535156 1174.269531 610.113281 1066.210938 C 737.28125 945.21875 874.316406 748.828125 1017.421875 482.511719 C 1212.910156 118.679688 1350.941406 -47.929688 1439.320312 -26.878906 C 1563.851562 2.769531 1573.859375 394.910156 1584.46875 810.078125 C 1596.171875 1268.449219 1608.28125 1742.429688 1772.191406 1781.449219 C 1913.96875 1815.269531 2152.730469 1515.660156 2502 865.628906 C 2830.988281 253.328125 3096.078125 -32.808594 3312.460938 -9.191406 C 3592.398438 21.390625 3744.910156 560.921875 3892.398438 1082.691406 C 4025.351562 1553.03125 4150.929688 1997.28125 4357.609375 2018.339844 C 4495.75 2032.359375 4659.171875 1854.171875 4856.710938 1473.371094 L 4860.039062 1475.089844 C 4669.039062 1843.300781 4509.421875 2022.851562 4372.820312 2022.851562 "/>
<path fill-rule="nonzero" fill="rgb(70.039368%, 71.229553%, 88.50708%)" fill-opacity="1" d="M 4418.558594 2053.328125 C 4413.25 2053.328125 4408 2053.078125 4402.761719 2052.570312 C 4188.671875 2031.699219 4055.859375 1591.550781 3915.25 1125.570312 C 3760 611.070312 3599.460938 79.058594 3315.300781 49.191406 C 3097.128906 26.300781 2831.851562 304.398438 2504.800781 899.558594 C 2173.351562 1502.738281 1939.269531 1797.238281 1790.871094 1797.269531 C 1782.550781 1797.269531 1774.519531 1796.351562 1766.730469 1794.5 C 1596.570312 1754.101562 1579.601562 1286.539062 1563.199219 834.371094 C 1548.441406 427.570312 1534.488281 43.328125 1410.179688 13.820312 C 1321.898438 -7.121094 1184.410156 154.710938 989.941406 508.609375 C 847.417969 767.96875 710.261719 959.351562 582.292969 1077.441406 C 467.378906 1183.480469 356.433594 1233.480469 252.683594 1226.089844 C 115.984375 1216.328125 -9.78125 1110.730469 -131.796875 903.238281 C -235.800781 726.378906 -319.324219 504.480469 -386.4375 326.179688 C -459.761719 131.390625 -517.800781 -22.808594 -565.621094 -22.808594 C -566.019531 -22.808594 -566.414062 -22.800781 -566.808594 -22.769531 C -589.585938 -21.550781 -610.042969 15.410156 -629.34375 90.210938 L -632.976562 89.269531 C -612.9375 11.621094 -591.976562 -25.179688 -567.011719 -26.519531 C -516.089844 -29.179688 -460.3125 119.28125 -382.929688 324.859375 C -315.867188 503.019531 -232.402344 724.761719 -128.5625 901.339844 C -7.21875 1107.679688 117.574219 1212.691406 252.949219 1222.351562 C 355.671875 1229.679688 465.625 1180 579.746094 1074.691406 C 707.421875 956.871094 844.324219 765.808594 986.65625 506.800781 C 1182.058594 151.210938 1320.878906 -11.25 1411.050781 10.171875 C 1538.140625 40.339844 1552.128906 425.96875 1566.941406 834.238281 C 1583.300781 1285 1600.210938 1751.109375 1767.601562 1790.851562 C 1912.308594 1825.238281 2152.398438 1533.078125 2501.519531 897.761719 C 2829.371094 301.121094 3095.679688 22.289062 3315.699219 45.46875 C 3602.328125 75.589844 3763.230469 608.820312 3918.839844 1124.488281 C 4059.078125 1589.230469 4191.539062 2028.199219 4403.121094 2048.828125 C 4543.71875 2062.460938 4707.648438 1888.871094 4904.308594 1517.878906 L 4907.621094 1519.628906 C 4717.449219 1878.378906 4557.230469 2053.328125 4418.558594 2053.328125 "/>
<path fill-rule="nonzero" fill="rgb(65.533447%, 66.061401%, 86.160278%)" fill-opacity="1" d="M 4465.488281 2083.75 C 4460.128906 2083.75 4454.800781 2083.5 4449.5 2083.011719 C 4230.429688 2062.609375 4090.621094 1627.589844 3942.589844 1167.019531 C 3779.101562 658.339844 3610.039062 132.339844 3318.96875 102.949219 C 3096.96875 80.558594 2830.570312 351.441406 2504.621094 931.148438 C 2173.871094 1519.371094 1938.808594 1806.601562 1787.738281 1806.621094 C 1778.929688 1806.621094 1770.410156 1805.640625 1762.171875 1803.691406 C 1588.46875 1762.570312 1566.660156 1302.699219 1545.578125 857.96875 C 1526.609375 457.898438 1508.691406 80.011719 1381.738281 49.960938 C 1291.640625 28.648438 1153.289062 186.371094 958.832031 532.210938 C 817.050781 784.359375 680.015625 970.5 551.53125 1085.46875 C 436.078125 1188.769531 324.140625 1237.539062 218.832031 1230.558594 C 78.75 1221.210938 -51.015625 1116.761719 -177.886719 911.230469 C -286.019531 736.058594 -373.542969 516.261719 -443.871094 339.640625 C -521.257812 145.300781 -582.355469 -8.078125 -631.402344 -5.089844 C -654.390625 -3.640625 -674.695312 32.46875 -693.488281 105.289062 L -697.121094 104.351562 C -677.871094 29.761719 -656.453125 -7.261719 -631.636719 -8.828125 C -579.941406 -11.960938 -521.378906 134.859375 -440.386719 338.261719 C -370.113281 514.730469 -282.65625 734.371094 -174.695312 909.261719 C -48.511719 1113.679688 80.296875 1217.550781 219.085938 1226.820312 C 323.328125 1233.800781 434.363281 1185.28125 549.03125 1082.671875 C 677.207031 967.980469 813.984375 782.171875 955.5625 530.378906 C 1150.949219 182.878906 1290.628906 24.550781 1382.601562 46.308594 C 1512.300781 77.011719 1530.289062 456.269531 1549.320312 857.800781 C 1570.339844 1301.140625 1592.078125 1759.578125 1763.03125 1800.039062 C 1910.75 1835.039062 2152.238281 1550.191406 2501.339844 929.320312 C 2828.109375 348.171875 3095.710938 76.679688 3319.339844 99.21875 C 3612.859375 128.851562 3782.300781 656.039062 3946.160156 1165.871094 C 4093.800781 1625.230469 4233.238281 2059.109375 4449.851562 2079.269531 C 4592.648438 2092.570312 4757.339844 1923.410156 4953.140625 1562.109375 L 4956.441406 1563.890625 C 4767.050781 1913.351562 4606.21875 2083.75 4465.488281 2083.75 "/>
<path fill-rule="nonzero" fill="rgb(63.990784%, 88.192749%, 93.15033%)" fill-opacity="1" d="M 4513.648438 2114.078125 C 4508.238281 2114.078125 4502.878906 2113.851562 4497.519531 2113.371094 C 4273.320312 2093.480469 4126.378906 1663.359375 3970.820312 1207.988281 C 3798.960938 704.898438 3621.25 184.679688 3323.039062 155.789062 C 3097.46875 133.960938 2829.679688 397.699219 2504.730469 962.199219 C 2174.609375 1535.660156 1938.5 1815.738281 1784.71875 1815.769531 C 1775.378906 1815.769531 1766.371094 1814.738281 1757.640625 1812.679688 C 1580.320312 1770.839844 1553.660156 1318.488281 1527.878906 881.03125 C 1504.691406 487.511719 1482.789062 115.800781 1353.121094 85.210938 C 1261.148438 63.46875 1121.890625 217.210938 927.378906 555.109375 C 786.328125 800.148438 649.40625 981.121094 520.421875 1093.011719 C 404.433594 1193.621094 291.464844 1241.269531 184.664062 1234.621094 C 41.097656 1225.699219 -92.78125 1122.359375 -224.621094 918.710938 C -336.980469 745.140625 -428.589844 527.339844 -502.195312 352.328125 C -582.152344 162.230469 -645.503906 11.601562 -695.257812 11.601562 C -695.851562 11.601562 -696.441406 11.621094 -697.03125 11.660156 C -720.210938 13.351562 -740.367188 48.621094 -758.652344 119.480469 L -762.285156 118.539062 C -743.542969 45.929688 -722.289062 9.738281 -697.300781 7.921875 C -644.648438 4.160156 -583.414062 149.550781 -498.738281 350.878906 C -425.1875 525.75 -333.652344 743.378906 -221.472656 916.671875 C -90.324219 1119.25 42.601562 1222.03125 184.898438 1230.878906 C 290.699219 1237.46875 402.746094 1190.121094 517.964844 1090.171875 C 646.632812 978.558594 783.285156 797.910156 924.128906 553.238281 C 1119.570312 213.71875 1260.128906 59.371094 1353.988281 81.558594 C 1486.371094 112.800781 1508.351562 485.851562 1531.628906 880.808594 C 1557.328125 1316.898438 1583.898438 1767.828125 1758.5 1809.03125 C 1909.261719 1844.609375 2152.261719 1566.988281 2501.46875 960.328125 C 2827.238281 394.421875 3096.140625 130 3323.398438 152.058594 C 3624.011719 181.179688 3802.128906 702.558594 3974.371094 1206.78125 C 4129.53125 1660.960938 4276.078125 2089.960938 4497.851562 2109.640625 C 4642.878906 2122.589844 4808.308594 1957.789062 5003.300781 1606.039062 L 5006.578125 1607.851562 C 4817.941406 1948.148438 4656.460938 2114.078125 4513.648438 2114.078125 "/>
<path fill-rule="nonzero" fill="rgb(43.367004%, 51.322937%, 79.277039%)" fill-opacity="1" d="M 4563.089844 2144.378906 C 4557.640625 2144.378906 4552.230469 2144.148438 4546.839844 2143.691406 C 4317.359375 2124.328125 4163.191406 1698.929688 3999.960938 1248.558594 C 3819.570312 750.820312 3633.039062 236.148438 3327.480469 207.789062 C 3098.171875 186.53125 2829.121094 443.261719 2505.128906 992.71875 C 2175.539062 1551.660156 1938.308594 1824.699219 1781.789062 1824.730469 C 1771.890625 1824.738281 1762.351562 1823.648438 1753.101562 1821.46875 C 1572.089844 1778.890625 1540.570312 1333.871094 1510.089844 903.5 C 1482.671875 516.371094 1456.761719 150.71875 1324.339844 119.570312 C 1230.480469 97.519531 1090.25 247.230469 895.601562 577.328125 C 755.257812 815.339844 618.445312 991.21875 488.964844 1100.078125 C 372.441406 1198.039062 258.429688 1244.550781 150.175781 1238.289062 C 3.011719 1229.808594 -135.089844 1127.539062 -272.023438 925.671875 C -388.722656 753.621094 -484.5 537.710938 -561.457031 364.21875 C -645.949219 173.738281 -712.488281 23.300781 -763.703125 27.5 C -787.054688 29.429688 -807.050781 63.871094 -824.835938 132.789062 L -828.46875 131.859375 C -810.230469 61.199219 -789.148438 25.839844 -764.011719 23.761719 C -710.320312 19.328125 -646.457031 163.351562 -558.027344 362.699219 C -481.132812 536.050781 -385.429688 751.789062 -268.921875 923.558594 C -132.683594 1124.410156 4.472656 1226.128906 150.390625 1234.550781 C 257.695312 1240.738281 370.785156 1194.53125 486.550781 1097.210938 C 615.707031 988.621094 752.242188 813.070312 892.367188 575.429688 C 1087.960938 243.71875 1229.511719 93.460938 1325.199219 115.921875 C 1460.308594 147.699219 1486.308594 514.691406 1513.828125 903.230469 C 1544.21875 1332.25 1575.640625 1775.871094 1753.960938 1817.820312 C 1907.808594 1854.019531 2152.429688 1583.480469 2501.890625 990.808594 C 2826.710938 439.96875 3096.96875 182.570312 3327.828125 204.058594 C 3635.75 232.628906 3822.699219 748.449219 4003.488281 1247.28125 C 4166.289062 1696.488281 4320.070312 2120.789062 4547.160156 2139.960938 C 4694.53125 2152.351562 4860.578125 1992.019531 5054.808594 1649.691406 L 5058.070312 1651.539062 C 4870.109375 1982.839844 4707.960938 2144.378906 4563.089844 2144.378906 "/>
<path fill-rule="nonzero" fill="rgb(38.085938%, 80.08728%, 96.116638%)" fill-opacity="1" d="M 4613.800781 2174.621094 C 4608.328125 2174.621094 4602.910156 2174.410156 4597.480469 2173.96875 C 4362.578125 2155.160156 4201.050781 1734.28125 4030.019531 1288.699219 C 3840.941406 796.089844 3645.429688 286.710938 3332.320312 258.910156 C 3099.238281 238.179688 2828.949219 488.058594 2505.839844 1022.71875 C 2176.691406 1567.390625 1938.289062 1833.5 1778.988281 1833.53125 C 1768.519531 1833.53125 1758.398438 1832.371094 1748.609375 1830.078125 C 1563.828125 1786.75 1527.421875 1348.878906 1492.210938 925.421875 C 1460.539062 544.539062 1430.621094 184.789062 1295.371094 153.078125 C 1199.601562 130.609375 1058.320312 276.441406 863.480469 598.859375 C 723.828125 829.949219 587.117188 1000.800781 457.144531 1106.679688 C 340.085938 1202.03125 225.074219 1247.390625 115.351562 1241.558594 C -35.511719 1233.519531 -177.953125 1132.289062 -320.109375 932.101562 C -441.25 761.5 -541.289062 547.378906 -621.671875 375.320312 C -709.824219 186.660156 -779.320312 37.589844 -831.453125 42.441406 C -854.949219 44.609375 -874.78125 78.238281 -892.070312 145.25 L -895.703125 144.308594 C -877.96875 75.589844 -857.066406 41.039062 -831.800781 38.699219 C -777.15625 33.769531 -710.523438 176.300781 -618.273438 373.738281 C -537.957031 545.648438 -437.996094 759.601562 -317.054688 929.929688 C -175.601562 1129.128906 -34.09375 1229.839844 115.554688 1237.820312 C 224.320312 1243.628906 338.464844 1198.519531 454.773438 1103.769531 C 584.414062 998.171875 720.84375 827.640625 860.273438 596.921875 C 1056.070312 272.921875 1198.71875 126.539062 1296.230469 149.421875 C 1434.128906 181.761719 1464.160156 542.828125 1495.941406 925.109375 C 1531.039062 1347.230469 1567.339844 1783.730469 1749.46875 1826.429688 C 1906.421875 1863.230469 2152.78125 1599.699219 2502.628906 1020.78125 C 2826.550781 484.78125 3098.121094 234.351562 3332.648438 255.179688 C 3648.101562 283.179688 3844.03125 793.671875 4033.519531 1287.351562 C 4204.109375 1731.808594 4365.238281 2151.609375 4597.789062 2170.230469 C 4747.28125 2182.328125 4914.160156 2026.148438 5107.648438 1693.101562 L 5110.890625 1694.988281 C 4923.578125 2017.398438 4760.730469 2174.621094 4613.800781 2174.621094 "/>
<path fill-rule="nonzero" fill="rgb(68.141174%, 81.440735%, 87.338257%)" fill-opacity="1" d="M 4665.808594 2204.859375 C 4660.328125 2204.859375 4654.890625 2204.648438 4649.449219 2204.238281 C 4408.980469 2186 4239.941406 1769.449219 4060.980469 1328.441406 C 3863.058594 840.738281 3658.410156 336.429688 3337.519531 309.199219 C 3100.710938 289.121094 2829.140625 532.171875 2506.859375 1052.230469 C 2178.050781 1582.820312 1938.410156 1842.109375 1776.308594 1842.140625 C 1765.210938 1842.140625 1754.5 1840.921875 1744.121094 1838.5 C 1555.480469 1794.410156 1514.160156 1363.511719 1474.199219 946.800781 C 1438.261719 572.011719 1404.320312 218.011719 1266.179688 185.71875 C 1168.398438 162.878906 1026.078125 304.851562 830.949219 619.730469 C 691.980469 843.980469 555.378906 1009.890625 424.929688 1112.820312 C 307.351562 1205.609375 191.367188 1249.898438 80.203125 1244.429688 C -74.46875 1236.851562 -221.359375 1136.621094 -368.867188 938.011719 C -494.558594 768.78125 -598.953125 556.351562 -682.839844 385.660156 C -774.714844 198.699219 -847.269531 50.960938 -900.296875 56.460938 C -923.925781 58.878906 -943.578125 91.710938 -960.382812 156.820312 L -964.015625 155.878906 C -946.773438 89.070312 -926.054688 55.328125 -900.679688 52.730469 C -845.019531 46.96875 -775.605469 188.378906 -679.472656 384 C -595.65625 554.558594 -491.34375 766.820312 -365.855469 935.78125 C -219.0625 1133.421875 -73.09375 1233.160156 80.386719 1240.691406 C 190.628906 1246.078125 305.761719 1202.089844 422.605469 1109.878906 C 552.710938 1007.210938 689.023438 841.640625 827.761719 617.75 C 1023.851562 301.328125 1167.519531 158.828125 1267.03125 182.070312 C 1407.800781 214.96875 1441.859375 570.269531 1477.929688 946.441406 C 1517.769531 1361.839844 1558.949219 1791.371094 1744.980469 1834.851562 C 1905.101562 1872.28125 2153.300781 1615.640625 2503.679688 1050.25 C 2826.761719 528.878906 3099.671875 285.269531 3337.828125 305.46875 C 3661.019531 332.878906 3866.109375 838.28125 4064.449219 1327.039062 C 4242.96875 1766.929688 4411.578125 2182.441406 4649.730469 2200.5 C 4801.648438 2212.039062 4969.058594 2060.179688 5161.839844 1736.308594 L 5165.058594 1738.21875 C 4978.351562 2051.910156 4814.800781 2204.859375 4665.808594 2204.859375 "/>
<path fill-rule="nonzero" fill="rgb(42.578125%, 81.266785%, 90.849304%)" fill-opacity="1" d="M 4719.171875 2235.070312 C 4713.699219 2235.070312 4708.261719 2234.878906 4702.820312 2234.480469 C 4456.628906 2216.839844 4279.949219 1804.429688 4092.898438 1367.808594 C 3885.960938 884.78125 3671.988281 385.300781 3343.078125 358.671875 C 3102.820312 339.160156 2829.679688 575.558594 2508.179688 1081.230469 C 2179.628906 1597.980469 1938.699219 1850.550781 1773.761719 1850.578125 C 1762 1850.578125 1750.660156 1849.300781 1739.671875 1846.738281 C 1547.070312 1801.878906 1500.820312 1377.769531 1456.078125 967.628906 C 1415.859375 598.769531 1377.859375 250.359375 1236.761719 217.5 C 1137.050781 194.261719 993.53125 332.429688 798.054688 639.878906 C 659.75 857.421875 523.242188 1018.449219 392.335938 1118.488281 C 274.238281 1208.75 157.292969 1251.941406 44.710938 1246.898438 C -113.871094 1239.78125 -265.335938 1140.511719 -418.328125 943.410156 C -548.691406 775.480469 -657.542969 564.648438 -745.007812 395.238281 C -840.691406 209.910156 -916.097656 63.460938 -970.296875 69.589844 C -994.03125 72.261719 -1013.5 104.308594 -1029.828125 167.550781 L -1033.460938 166.621094 C -1016.699219 101.691406 -996.175781 68.730469 -970.714844 65.871094 C -914.144531 59.589844 -841.792969 199.601562 -741.675781 393.519531 C -654.28125 562.789062 -545.515625 773.449219 -415.367188 941.109375 C -263.089844 1137.289062 -112.539062 1236.078125 44.878906 1243.148438 C 156.558594 1248.121094 272.679688 1205.21875 390.058594 1115.511719 C 520.617188 1015.738281 656.824219 855.03125 794.890625 637.871094 C 991.328125 328.898438 1136.121094 190.199219 1237.609375 213.839844 C 1381.300781 247.308594 1419.441406 597 1459.808594 967.21875 C 1504.398438 1376.070312 1550.511719 1798.820312 1740.519531 1843.089844 C 1903.96875 1881.140625 2154.011719 1631.289062 2505.019531 1079.21875 C 2827.328125 572.269531 3101.460938 335.339844 3343.378906 354.929688 C 3674.539062 381.738281 3888.980469 882.28125 4096.351562 1366.328125 C 4282.941406 1801.871094 4459.179688 2213.261719 4703.089844 2230.738281 C 4857.199219 2241.75 5025.339844 2094.101562 5217.441406 1779.269531 L 5220.640625 1781.21875 C 5034.488281 2086.308594 4870.21875 2235.070312 4719.171875 2235.070312 "/>
<path fill-rule="nonzero" fill="rgb(40.301514%, 73.194885%, 91.958618%)" fill-opacity="1" d="M 4773.878906 2265.28125 C 4768.421875 2265.28125 4763 2265.089844 4757.570312 2264.730469 C 4505.5 2247.691406 4321.039062 1839.238281 4125.75 1406.820312 C 3909.628906 928.238281 3686.140625 433.378906 3349 407.359375 C 3105.039062 388.46875 2830.578125 618.28125 2509.800781 1109.769531 C 2157.058594 1650.199219 1903.691406 1893.921875 1735.230469 1854.789062 C 1538.578125 1809.140625 1487.371094 1391.671875 1437.851562 987.929688 C 1393.308594 624.871094 1351.25 281.929688 1207.121094 248.46875 C 1105.378906 224.851562 960.671875 359.269531 764.773438 659.410156 C 627.113281 870.320312 490.710938 1026.550781 359.351562 1123.75 C 240.746094 1211.511719 122.835938 1253.691406 8.886719 1248.988281 C -153.726562 1242.339844 -309.886719 1143.980469 -468.511719 948.289062 C -603.660156 781.570312 -717.070312 572.238281 -808.199219 404.039062 C -907.773438 220.25 -986.445312 75.210938 -1041.449219 81.828125 C -1065.261719 84.75 -1084.550781 116.019531 -1100.390625 177.429688 L -1104.019531 176.488281 C -1087.75 113.421875 -1067.429688 81.238281 -1041.898438 78.109375 C -984.242188 70.941406 -909.070312 209.980469 -804.902344 402.25 C -713.847656 570.320312 -600.527344 779.480469 -465.601562 945.929688 C -307.691406 1140.730469 -152.4375 1238.640625 9.039062 1245.238281 C 122.085938 1249.839844 239.21875 1207.96875 357.121094 1120.738281 C 488.121094 1023.800781 624.21875 867.898438 761.632812 657.359375 C 958.496094 355.738281 1104.519531 220.800781 1207.96875 244.820312 C 1354.648438 278.871094 1396.871094 623.070312 1441.570312 987.480469 C 1490.941406 1389.929688 1541.980469 1806.078125 1736.070312 1851.140625 C 1902.808594 1889.820312 2154.878906 1646.679688 2506.660156 1107.71875 C 2828.25 614.988281 3103.851562 384.660156 3349.28125 403.621094 C 3688.640625 429.808594 3912.589844 925.710938 4129.171875 1405.269531 C 4323.988281 1836.648438 4508 2244.101562 4757.820312 2260.980469 C 4913.980469 2271.589844 5082.980469 2127.960938 5274.421875 1822.039062 L 5277.601562 1824.03125 C 5091.96875 2120.660156 4926.96875 2265.28125 4773.878906 2265.28125 "/>
<path fill-rule="nonzero" fill="rgb(27.388%, 34.513855%, 69.158936%)" fill-opacity="1" d="M 4830.011719 2295.5 C 4824.578125 2295.5 4819.171875 2295.328125 4813.769531 2294.980469 C 4555.671875 2278.558594 4363.269531 1873.890625 4159.589844 1445.460938 C 3934.070312 971.128906 3700.878906 480.648438 3355.25 455.238281 C 3107.800781 437.039062 2831.828125 660.308594 2511.730469 1137.800781 C 2183.441406 1627.488281 1939.75 1866.921875 1769.050781 1866.949219 C 1755.859375 1866.949219 1743.128906 1865.519531 1730.808594 1862.671875 C 1530.03125 1816.21875 1473.839844 1405.199219 1419.488281 1007.71875 C 1370.621094 650.289062 1324.46875 312.679688 1177.25 278.621094 C 1073.441406 254.609375 927.492188 385.320312 731.101562 678.261719 C 594.070312 882.660156 457.765625 1034.160156 325.96875 1128.550781 C 206.855469 1213.859375 87.980469 1254.949219 -27.285156 1250.671875 C -194.042969 1244.488281 -355.023438 1147.011719 -519.429688 952.640625 C -659.480469 787.070312 -777.566406 579.140625 -872.441406 412.070312 C -975.984375 229.738281 -1057.800781 85.699219 -1113.820312 93.160156 C -1137.691406 96.328125 -1156.769531 126.839844 -1172.148438 186.421875 L -1175.78125 185.480469 C -1159.980469 124.25 -1139.871094 92.839844 -1114.308594 89.449219 C -1055.660156 81.75 -977.496094 219.480469 -869.183594 410.210938 C -774.378906 577.148438 -656.394531 784.910156 -516.5625 950.21875 C -352.882812 1143.730469 -192.792969 1240.789062 -27.148438 1246.929688 C 87.308594 1251.140625 205.363281 1210.308594 323.78125 1125.5 C 455.214844 1031.371094 591.207031 880.199219 727.984375 676.171875 C 925.34375 381.789062 1072.578125 250.539062 1178.101562 274.96875 C 1327.828125 309.609375 1374.160156 648.460938 1423.210938 1007.210938 C 1477.378906 1403.429688 1533.390625 1813.148438 1731.660156 1859.011719 C 1901.78125 1898.410156 2155.929688 1661.78125 2508.609375 1135.710938 C 2829.539062 657 3106.46875 433.160156 3355.53125 451.5 C 3703.328125 477.070312 3937 968.550781 4162.96875 1443.859375 C 4366.171875 1871.261719 4558.109375 2274.960938 4814.011719 2291.238281 C 4972.460938 2301.25 5142.039062 2161.761719 5332.859375 1864.621094 L 5336.011719 1866.648438 C 5150.871094 2154.949219 4985.121094 2295.5 4830.011719 2295.5 "/>
<path fill-rule="nonzero" fill="rgb(68.788147%, 70.466614%, 85.301208%)" fill-opacity="1" d="M 4887.578125 2325.75 C 4882.179688 2325.75 4876.820312 2325.589844 4871.441406 2325.269531 C 4607.148438 2309.46875 4406.660156 1908.410156 4194.398438 1483.789062 C 3959.300781 1013.488281 3716.199219 527.171875 3361.851562 502.371094 C 3110.878906 484.820312 2833.449219 701.679688 2513.96875 1165.390625 C 2185.691406 1641.851562 1940.539062 1874.871094 1766.910156 1874.890625 C 1752.941406 1874.890625 1739.460938 1873.390625 1726.410156 1870.378906 C 1521.398438 1823.109375 1460.191406 1418.390625 1400.988281 1027 C 1347.761719 675.058594 1297.480469 342.628906 1147.101562 307.960938 C 1041.171875 283.550781 893.925781 410.609375 696.972656 696.46875 C 560.5625 894.460938 424.363281 1041.300781 292.148438 1132.941406 C 172.546875 1215.820312 52.792969 1255.871094 -63.824219 1251.980469 C -234.832031 1246.269531 -400.753906 1149.609375 -571.078125 956.488281 C -716.164062 791.980469 -839.023438 585.378906 -937.738281 419.371094 C -1045.339844 238.421875 -1130.410156 95.480469 -1187.371094 103.660156 C -1211.28125 107.070312 -1230.160156 136.820312 -1245.070312 194.609375 L -1248.699219 193.671875 C -1233.371094 134.261719 -1213.480469 103.601562 -1187.910156 99.941406 C -1128.320312 91.398438 -1047.058594 228.179688 -934.515625 417.449219 C -835.878906 583.328125 -713.117188 789.769531 -568.265625 954.011719 C -398.660156 1146.308594 -233.617188 1242.550781 -63.695312 1248.230469 C 52.058594 1252.078125 171.089844 1212.269531 290.011719 1129.851562 C 421.851562 1038.480469 557.734375 891.960938 693.886719 694.339844 C 891.816406 407.070312 1040.359375 279.519531 1147.941406 304.300781 C 1300.808594 339.550781 1351.269531 673.199219 1404.699219 1026.441406 C 1463.710938 1416.589844 1524.71875 1820.03125 1727.25 1866.71875 C 1900.859375 1906.769531 2157.171875 1676.648438 2510.878906 1163.261719 C 2831.179688 698.371094 3109.621094 480.960938 3362.109375 498.628906 C 3718.601562 523.578125 3962.191406 1010.871094 4197.761719 1482.121094 C 4409.519531 1905.730469 4609.53125 2305.859375 4871.671875 2321.53125 C 5032.191406 2331.011719 5202.53125 2195.539062 5392.75 1907.058594 L 5395.890625 1909.121094 C 5211.191406 2189.210938 5044.691406 2325.75 4887.578125 2325.75 "/>
<path fill-rule="nonzero" fill="rgb(66.943359%, 75.466919%, 90.863037%)" fill-opacity="1" d="M 4946.609375 2356.039062 C 4941.261719 2356.039062 4935.949219 2355.890625 4930.621094 2355.589844 C 4659.960938 2340.410156 4451.210938 1942.761719 4230.199219 1521.769531 C 3985.320312 1055.300781 3732.101562 572.941406 3368.78125 548.75 C 3114.191406 531.78125 2835.429688 742.378906 2516.511719 1192.53125 C 2160.660156 1694.800781 1900.761719 1918.988281 1722.03125 1877.921875 C 1512.671875 1829.820312 1446.410156 1431.21875 1382.328125 1045.738281 C 1324.71875 699.160156 1270.300781 371.800781 1116.691406 336.5 C 1008.648438 311.679688 860.039062 435.171875 662.449219 714.058594 C 526.644531 905.738281 390.539062 1048.011719 257.925781 1136.910156 C 137.839844 1217.421875 17.148438 1256.410156 -100.703125 1252.910156 C -276.085938 1247.648438 -447.097656 1151.78125 -623.507812 959.800781 C -773.761719 796.28125 -901.515625 590.910156 -1004.171875 425.878906 C -1115.910156 246.25 -1204.160156 104.398438 -1262.210938 113.25 C -1286.128906 116.910156 -1304.78125 145.921875 -1319.230469 201.929688 L -1322.859375 201 C -1307.988281 143.371094 -1288.339844 113.460938 -1262.78125 109.550781 C -1202.320312 100.261719 -1117.851562 236.03125 -1000.988281 423.898438 C -898.414062 588.789062 -770.761719 794.011719 -620.746094 957.261719 C -445.054688 1148.460938 -274.910156 1243.941406 -100.589844 1249.160156 C 145.953125 1256.558594 401.570312 1075.789062 659.390625 711.890625 C 857.949219 431.628906 1007.820312 307.660156 1117.53125 332.851562 C 1273.589844 368.699219 1328.210938 697.269531 1386.03125 1045.128906 C 1449.910156 1429.390625 1515.960938 1826.730469 1722.871094 1874.269531 C 1899.949219 1914.949219 2158.570312 1691.261719 2513.449219 1190.359375 C 2833.179688 739.058594 3113.03125 527.960938 3369.019531 545.011719 C 3734.441406 569.339844 3988.160156 1052.640625 4233.519531 1520.03125 C 4454.019531 1940.050781 4662.289062 2336.789062 4930.828125 2351.839844 C 5093.441406 2361.050781 5264.488281 2229.28125 5454.160156 1949.320312 L 5457.269531 1951.421875 C 5273 2223.429688 5105.730469 2356.039062 4946.609375 2356.039062 "/>
<path fill-rule="nonzero" fill="rgb(63.121033%, 65.647888%, 82.841492%)" fill-opacity="1" d="M 5007.128906 2386.390625 C 5001.839844 2386.390625 4996.570312 2386.25 4991.300781 2385.96875 C 4714.121094 2371.410156 4496.949219 1977.03125 4267.019531 1559.488281 C 4012.140625 1096.640625 3748.589844 618.019531 3376.039062 594.421875 C 3117.941406 578.101562 2837.75 782.449219 2519.351562 1219.238281 C 2190.871094 1669.851562 1942.671875 1890.308594 1763.109375 1890.320312 C 1747.441406 1890.320312 1732.300781 1888.648438 1717.671875 1885.289062 C 1503.890625 1836.351562 1432.539062 1443.71875 1363.539062 1064.011719 C 1301.511719 722.628906 1242.921875 400.179688 1085.988281 364.25 C 975.730469 339.011719 825.738281 458.96875 627.441406 730.980469 C 492.230469 916.46875 356.238281 1054.238281 223.242188 1140.460938 C 102.691406 1218.609375 -18.871094 1256.609375 -137.964844 1253.441406 C -317.824219 1248.628906 -494.046875 1153.488281 -676.695312 962.578125 C -832.246094 800 -965.019531 595.761719 -1071.699219 431.660156 C -1187.691406 253.238281 -1279.238281 112.300781 -1338.351562 121.960938 C -1362.25 125.859375 -1380.679688 154.140625 -1394.679688 208.398438 L -1398.308594 207.460938 C -1383.898438 151.609375 -1364.480469 122.429688 -1338.960938 118.261719 C -1277.558594 108.210938 -1189.859375 243.019531 -1068.558594 429.609375 C -961.960938 593.589844 -829.296875 797.660156 -673.984375 959.988281 C -492.054688 1150.140625 -316.6875 1244.910156 -137.863281 1249.691406 C 111.042969 1256.320312 367.59375 1081.078125 624.414062 728.769531 C 823.691406 455.410156 974.96875 334.96875 1086.828125 360.589844 C 1246.171875 397.070312 1304.96875 720.710938 1367.230469 1063.339844 C 1436.011719 1441.851562 1507.128906 1833.238281 1718.511719 1881.640625 C 1899.238281 1923.03125 2160.160156 1705.621094 2516.320312 1217.039062 C 2835.53125 779.128906 3116.710938 574.230469 3376.28125 590.671875 C 3750.878906 614.410156 4014.941406 1093.941406 4270.308594 1557.691406 C 4499.71875 1974.28125 4716.398438 2367.78125 4991.488281 2382.230469 C 5156.03125 2390.910156 5327.898438 2263.050781 5517.019531 1991.488281 L 5520.101562 1993.628906 C 5336.21875 2257.679688 5168.210938 2386.390625 5007.128906 2386.390625 "/>
<path fill-rule="nonzero" fill="rgb(57.815552%, 77.41394%, 84.181213%)" fill-opacity="1" d="M 5069.191406 2416.808594 C 5063.96875 2416.808594 5058.761719 2416.679688 5053.539062 2416.417969 C 4769.671875 2402.46875 4543.878906 2011.171875 4304.851562 1596.910156 C 4039.75 1137.46875 3765.628906 662.410156 3383.589844 639.371094 C 3122.03125 623.539062 2840.410156 821.871094 2522.488281 1245.519531 C 2193.808594 1683.460938 1943.988281 1897.789062 1761.429688 1897.808594 C 1744.828125 1897.808594 1728.808594 1896.039062 1713.308594 1892.511719 C 1494.980469 1842.691406 1418.511719 1455.859375 1344.558594 1081.75 C 1278.089844 745.449219 1215.300781 427.800781 1055 391.21875 C 942.5625 365.570312 791.09375 482.03125 592.035156 747.289062 C 457.390625 926.699219 321.496094 1060.039062 188.125 1143.621094 C 67.113281 1219.460938 -55.304688 1256.460938 -175.605469 1253.601562 C -360.078125 1249.21875 -541.648438 1154.761719 -730.699219 964.839844 C -891.683594 803.101562 -1029.589844 599.921875 -1140.398438 436.671875 C -1260.71875 259.410156 -1355.679688 119.328125 -1415.800781 129.808594 C -1439.648438 133.949219 -1457.828125 161.5 -1471.390625 214.03125 L -1475.019531 213.089844 C -1461.050781 158.980469 -1441.890625 130.53125 -1416.441406 126.109375 C -1354.039062 115.289062 -1263.109375 249.210938 -1137.300781 434.558594 C -1026.578125 597.691406 -888.777344 800.699219 -728.039062 962.191406 C -539.707031 1151.398438 -358.972656 1245.5 -175.519531 1249.851562 C 75.949219 1255.808594 333.164062 1085.980469 589.035156 745.039062 C 789.078125 478.46875 941.777344 361.539062 1055.839844 387.570312 C 1218.511719 424.679688 1281.53125 743.488281 1348.238281 1081.03125 C 1421.960938 1453.949219 1498.179688 1839.578125 1714.140625 1888.851562 C 1898.46875 1930.949219 2161.898438 1719.738281 2519.488281 1243.269531 C 2838.230469 818.539062 3121.101562 619.859375 3383.820312 635.621094 C 3767.859375 658.78125 4042.5 1134.738281 4308.089844 1595.03125 C 4546.609375 2008.390625 4771.898438 2398.828125 5053.71875 2412.679688 C 5220.238281 2420.898438 5392.851562 2296.839844 5581.46875 2033.53125 L 5584.511719 2035.710938 C 5400.988281 2291.929688 5232.21875 2416.808594 5069.191406 2416.808594 "/>
<path fill-rule="nonzero" fill="rgb(56.225586%, 73.799133%, 82.615662%)" fill-opacity="1" d="M 5132.828125 2447.300781 C 5127.671875 2447.300781 5122.519531 2447.179688 5117.371094 2446.949219 C 4826.648438 2433.589844 4592.089844 2045.21875 4343.75 1634.050781 C 4068.210938 1177.851562 3783.289062 706.109375 3391.53125 683.609375 C 3126.601562 668.449219 2843.480469 860.648438 2525.96875 1271.359375 C 2165.839844 1737.191406 1898.601562 1942.640625 1708.988281 1899.550781 C 1486.019531 1848.851562 1404.378906 1467.660156 1325.441406 1099.03125 C 1254.46875 767.648438 1187.449219 454.660156 1023.679688 417.421875 C 908.980469 391.359375 755.996094 504.359375 556.082031 762.960938 C 422 936.398438 286.207031 1065.398438 152.488281 1146.371094 C 31.03125 1219.921875 -92.140625 1255.890625 -213.6875 1253.359375 C -402.867188 1249.390625 -589.914062 1155.558594 -785.519531 966.539062 C -952.070312 805.589844 -1095.230469 603.398438 -1210.261719 440.941406 C -1335.011719 264.75 -1433.519531 125.578125 -1494.570312 136.789062 C -1518.351562 141.160156 -1536.289062 168 -1549.410156 218.839844 L -1553.039062 217.910156 C -1539.511719 165.511719 -1520.609375 137.769531 -1495.25 133.109375 C -1431.878906 121.480469 -1337.628906 254.558594 -1207.199219 438.769531 C -1092.261719 601.109375 -949.214844 803.140625 -782.914062 963.839844 C -588.019531 1152.179688 -401.796875 1245.660156 -213.609375 1249.609375 C 40.320312 1254.78125 298.175781 1090.441406 553.113281 760.660156 C 754.011719 500.789062 908.222656 387.339844 1024.511719 413.761719 C 1190.609375 451.53125 1257.878906 765.660156 1329.109375 1098.238281 C 1407.800781 1465.730469 1489.179688 1845.71875 1709.828125 1895.890625 C 1897.851562 1938.609375 2163.871094 1733.621094 2523 1269.070312 C 2841.320312 857.300781 3125.449219 664.53125 3391.738281 679.871094 C 3785.480469 702.480469 4070.921875 1175.078125 4346.960938 1632.109375 C 4594.761719 2042.390625 4828.828125 2429.929688 5117.539062 2443.199219 C 5285.890625 2450.960938 5459.320312 2330.660156 5647.441406 2075.460938 L 5650.460938 2077.691406 C 5467.28125 2326.191406 5297.761719 2447.300781 5132.828125 2447.300781 "/>
<path fill-rule="nonzero" fill="rgb(55.885315%, 76.126099%, 83.508301%)" fill-opacity="1" d="M 5198.070312 2477.890625 C 5192.980469 2477.890625 5187.898438 2477.78125 5182.800781 2477.558594 C 4885.058594 2464.761719 4641.519531 2079.160156 4383.671875 1670.921875 C 4097.46875 1217.769531 3801.511719 749.191406 3399.75 727.179688 C 3131.46875 712.46875 2846.878906 898.800781 2529.738281 1296.800781 C 2200.46875 1710.019531 1947.328125 1912.328125 1758.710938 1912.351562 C 1740.078125 1912.351562 1722.089844 1910.371094 1704.699219 1906.429688 C 1476.96875 1854.828125 1390.128906 1479.148438 1306.148438 1115.828125 C 1230.671875 789.261719 1159.359375 480.789062 992.058594 442.878906 C 875.011719 416.378906 720.496094 526 519.660156 778.058594 C 386.121094 945.640625 250.441406 1070.359375 116.390625 1148.769531 C -5.496094 1220.050781 -129.5625 1254.980469 -252.148438 1252.769531 C -446.15625 1249.179688 -638.828125 1155.941406 -841.167969 967.71875 C -1013.429688 807.46875 -1161.980469 606.179688 -1281.339844 444.441406 C -1410.628906 269.25 -1512.75 130.828125 -1574.738281 142.890625 C -1598.421875 147.480469 -1616.089844 173.609375 -1628.78125 222.78125 L -1632.410156 221.851562 C -1619.328125 171.128906 -1600.699219 144.101562 -1575.449219 139.199219 C -1511.191406 126.789062 -1413.488281 259.058594 -1278.328125 442.210938 C -1159.058594 603.828125 -1010.621094 804.96875 -838.613281 964.96875 C -636.980469 1152.53125 -445.121094 1245.449219 -252.078125 1249.019531 C 4.082031 1253.859375 262.6875 1094.519531 516.726562 775.71875 C 718.550781 522.421875 874.308594 412.359375 992.886719 439.230469 C 1162.488281 477.648438 1234.050781 787.230469 1309.808594 1114.988281 C 1393.53125 1477.179688 1480.101562 1851.699219 1705.53125 1902.78125 C 1897.339844 1946.25 2166 1747.261719 2526.808594 1294.460938 C 2844.761719 895.441406 3130.378906 708.640625 3399.960938 723.429688 C 3803.648438 745.558594 4100.128906 1214.960938 4386.851562 1668.921875 C 4644.148438 2076.300781 4887.179688 2461.101562 5182.96875 2473.820312 C 5353.289062 2481.128906 5527.378906 2364.53125 5715.03125 2117.320312 L 5718.019531 2119.589844 C 5535.160156 2360.488281 5364.878906 2477.890625 5198.070312 2477.890625 "/>
<path fill-rule="nonzero" fill="rgb(31.568909%, 38.658142%, 71.897888%)" fill-opacity="1" d="M 5264.96875 2508.570312 C 5259.929688 2508.570312 5254.910156 2508.46875 5249.878906 2508.269531 C 4944.949219 2495.988281 4692.238281 2113.011719 4424.691406 1707.539062 C 4127.570312 1257.261719 3820.339844 791.640625 3408.328125 770.058594 C 3136.699219 755.820312 2850.660156 936.328125 2533.828125 1321.851562 C 2204.179688 1722.96875 1949.308594 1919.421875 1757.628906 1919.429688 C 1737.890625 1919.429688 1718.828125 1917.351562 1700.410156 1913.191406 C 1467.808594 1860.660156 1375.71875 1490.320312 1286.660156 1132.171875 C 1206.609375 810.261719 1131 506.191406 960.066406 467.589844 C 840.722656 440.640625 684.539062 546.921875 482.699219 792.511719 C 349.6875 954.359375 214.113281 1074.898438 79.746094 1150.769531 C -42.558594 1219.828125 -167.21875 1253.820312 -291.097656 1251.800781 C -490.042969 1248.550781 -688.46875 1155.828125 -897.707031 968.339844 C -1075.820312 808.75 -1229.878906 608.28125 -1353.671875 447.210938 C -1487.601562 272.949219 -1593.390625 135.328125 -1656.320312 148.148438 C -1679.859375 152.949219 -1697.269531 178.398438 -1709.53125 225.921875 L -1713.171875 224.988281 C -1700.511719 175.929688 -1682.160156 149.589844 -1657.070312 144.46875 C -1591.789062 131.199219 -1490.691406 262.769531 -1350.699219 444.921875 C -1227 605.871094 -1073.058594 806.179688 -895.203125 965.550781 C -686.667969 1152.410156 -489.039062 1244.820312 -291.03125 1248.050781 C -287.597656 1248.109375 -284.148438 1248.140625 -280.710938 1248.140625 C -25.808594 1248.140625 230 1094.101562 479.800781 790.128906 C 682.628906 543.328125 839.996094 436.648438 960.894531 463.941406 C 1134.078125 503.039062 1209.960938 808.199219 1290.300781 1131.269531 C 1379.078125 1488.308594 1470.898438 1857.519531 1701.238281 1909.53125 C 1896.929688 1953.730469 2168.308594 1760.710938 2530.929688 1319.46875 C 2848.570312 932.960938 3135.769531 752.101562 3408.519531 766.320312 C 3822.429688 787.988281 4130.191406 1254.410156 4427.820312 1705.480469 C 4694.828125 2110.121094 4947.019531 2492.320312 5250.03125 2504.519531 C 5422.199219 2511.398438 5597 2398.460938 5784.210938 2159.101562 L 5787.171875 2161.421875 C 5604.609375 2394.828125 5433.609375 2508.570312 5264.96875 2508.570312 "/>
<path fill-rule="nonzero" fill="rgb(42.382812%, 81.460571%, 96.195984%)" fill-opacity="1" d="M 5333.539062 2539.398438 C 5328.550781 2539.398438 5323.578125 2539.300781 5318.601562 2539.121094 C 5006.300781 2527.320312 4744.230469 2146.800781 4466.769531 1743.941406 C 4158.511719 1296.351562 3839.75 833.519531 3417.21875 812.308594 C 3142.300781 798.539062 2854.800781 973.261719 2538.238281 1346.5 C 2208.171875 1735.691406 1951.519531 1926.339844 1756.78125 1926.371094 C 1735.859375 1926.371094 1715.671875 1924.171875 1696.160156 1919.78125 C 1458.578125 1866.308594 1361.179688 1501.160156 1266.988281 1148.03125 C 1182.339844 830.648438 1102.378906 530.871094 927.742188 491.570312 C 805.949219 464.140625 648.152344 567.140625 445.257812 806.371094 C 312.746094 962.609375 177.273438 1079.039062 42.59375 1152.410156 C -80.125 1219.269531 -205.726562 1252.28125 -330.488281 1250.460938 C -534.492188 1247.519531 -738.808594 1155.261719 -955.113281 968.421875 C -1139.21875 809.398438 -1298.921875 609.691406 -1427.25 449.21875 C -1565.921875 275.808594 -1675.5 138.839844 -1739.328125 152.519531 C -1762.71875 157.53125 -1779.859375 182.28125 -1791.699219 228.191406 L -1795.328125 227.261719 C -1783.101562 179.828125 -1765.039062 154.191406 -1740.121094 148.851562 C -1673.980469 134.710938 -1569.261719 265.628906 -1424.320312 446.871094 C -1296.089844 607.21875 -1136.5 806.78125 -952.660156 965.578125 C -737.050781 1151.820312 -533.515625 1243.78125 -330.433594 1246.710938 C -70.007812 1250.421875 190.039062 1101.5 442.398438 803.941406 C 646.28125 563.539062 805.292969 460.160156 928.5625 487.910156 C 1105.421875 527.710938 1185.660156 828.558594 1270.621094 1147.058594 C 1364.519531 1499.109375 1461.621094 1863.148438 1696.980469 1916.121094 C 1896.601562 1961.03125 2170.828125 1773.921875 2535.378906 1344.078125 C 2852.738281 969.871094 3141.25 794.710938 3417.410156 808.570312 C 3841.78125 829.871094 4161.078125 1293.46875 4469.859375 1741.820312 C 4746.769531 2143.878906 5008.320312 2523.640625 5318.738281 2535.371094 C 5492.949219 2541.917969 5668.25 2432.53125 5855.058594 2200.871094 L 5857.980469 2203.21875 C 5675.71875 2429.25 5503.96875 2539.398438 5333.539062 2539.398438 "/>
<path fill-rule="nonzero" fill="rgb(66.036987%, 68.067932%, 84.431458%)" fill-opacity="1" d="M 5403.828125 2570.351562 C 5398.890625 2570.351562 5393.949219 2570.269531 5389.011719 2570.089844 C 5069.191406 2558.738281 4797.558594 2180.539062 4509.980469 1780.140625 C 4190.308594 1335.070312 3859.761719 874.839844 3426.460938 853.929688 C 3148.398438 840.488281 2859.308594 1009.570312 2542.949219 1370.789062 C 2212.410156 1748.199219 1953.980469 1933.148438 1756.160156 1933.179688 C 1733.980469 1933.179688 1712.589844 1930.851562 1691.921875 1926.210938 C 1449.230469 1871.769531 1346.480469 1511.671875 1247.109375 1163.421875 C 1157.808594 850.460938 1073.460938 554.851562 895.039062 514.820312 C 770.855469 486.949219 611.304688 586.671875 407.277344 819.640625 C 275.246094 970.390625 139.863281 1082.789062 4.886719 1153.699219 C -118.238281 1218.390625 -244.480469 1250.421875 -370.382812 1248.761719 C -579.554688 1246.078125 -789.898438 1154.230469 -1013.449219 967.96875 C -1203.691406 809.460938 -1369.171875 610.441406 -1502.148438 450.519531 C -1645.691406 277.890625 -1759.050781 141.519531 -1823.871094 156.070312 C -1847.089844 161.269531 -1863.929688 185.339844 -1875.371094 229.671875 L -1879 228.730469 C -1867.179688 182.910156 -1849.410156 157.949219 -1824.691406 152.410156 C -1757.660156 137.371094 -1649.269531 267.71875 -1499.261719 448.121094 C -1237.398438 763.050781 -841.664062 1238.96875 -370.335938 1245.011719 C -107.664062 1248.449219 152.875 1104.429688 404.457031 817.171875 C 609.472656 583.078125 770.210938 482.980469 895.859375 511.160156 C 1076.460938 551.671875 1161.101562 848.328125 1250.71875 1162.390625 C 1349.789062 1509.589844 1452.230469 1868.601562 1692.738281 1922.550781 C 1896.300781 1968.179688 2173.511719 1786.929688 2540.128906 1368.320312 C 2857.289062 1006.179688 3147.378906 836.710938 3426.640625 850.191406 C 3861.75 871.179688 4192.839844 1332.148438 4513.019531 1777.949219 C 4800.058594 2177.578125 5071.160156 2555.050781 5389.140625 2566.339844 C 5564.871094 2572.710938 5741.121094 2466.691406 5927.539062 2242.570312 L 5930.421875 2244.96875 C 5748.441406 2463.75 5576 2570.351562 5403.828125 2570.351562 "/>
<path fill-rule="nonzero" fill="rgb(50.947571%, 76.037598%, 88.536072%)" fill-opacity="1" d="M 5475.910156 2601.480469 C 5470.988281 2601.480469 5466.070312 2601.398438 5461.148438 2601.230469 C 5133.628906 2590.261719 4852.21875 2214.238281 4554.289062 1816.140625 C 4222.96875 1373.421875 3880.359375 915.628906 3436.019531 894.929688 C 3154.601562 881.800781 2864.179688 1045.308594 2547.980469 1394.71875 C 2178.179688 1803.359375 1896.769531 1979.289062 1687.699219 1932.519531 C 1439.789062 1877.089844 1331.628906 1521.878906 1227.03125 1178.371094 C 1133.039062 869.679688 1044.261719 578.109375 861.957031 537.339844 C 735.320312 509.019531 573.972656 605.511719 368.734375 832.300781 C 237.160156 977.699219 101.859375 1086.148438 -33.410156 1154.640625 C -156.933594 1217.179688 -283.804688 1248.109375 -410.808594 1246.699219 C -625.257812 1244.21875 -841.773438 1152.710938 -1072.738281 966.929688 C -1269.261719 808.851562 -1440.660156 610.449219 -1578.378906 451.03125 C -1726.890625 279.121094 -1844.140625 143.351562 -1909.890625 158.710938 C -1932.898438 164.089844 -1949.449219 187.5 -1960.480469 230.261719 L -1964.109375 229.320312 C -1952.699219 185.078125 -1935.238281 160.789062 -1910.75 155.050781 C -1842.851562 139.191406 -1730.71875 268.941406 -1575.539062 448.570312 C -1304.191406 762.691406 -894.113281 1237.371094 -410.769531 1242.949219 C -146.128906 1245.898438 115.097656 1106.988281 365.953125 829.789062 C 572.175781 601.898438 734.699219 505.050781 862.773438 533.679688 C 1047.210938 574.921875 1136.300781 867.511719 1230.621094 1177.28125 C 1334.898438 1519.761719 1442.738281 1873.910156 1688.511719 1928.859375 C 1896.140625 1975.308594 2176.378906 1799.75 2545.199219 1392.199219 C 2862.199219 1041.898438 3153.761719 878.058594 3436.191406 891.191406 C 3882.308594 911.960938 4225.449219 1370.46875 4557.300781 1813.890625 C 4854.671875 2211.25 5135.550781 2586.558594 5461.28125 2597.480469 C 5466.148438 2597.648438 5471.03125 2597.730469 5475.898438 2597.730469 C 5648.621094 2597.730469 5820.789062 2495.058594 6001.761719 2284.300781 L 6004.601562 2286.738281 C 5822.890625 2498.371094 5649.769531 2601.480469 5475.910156 2601.480469 "/>
<path fill-rule="nonzero" fill="rgb(41.906738%, 53.204346%, 80.41687%)" fill-opacity="1" d="M 5549.820312 2632.769531 C 5544.890625 2632.769531 5539.980469 2632.691406 5535.050781 2632.53125 C 5199.660156 2621.859375 4908.269531 2247.878906 4599.769531 1851.941406 C 4256.53125 1411.421875 3901.609375 955.898438 3445.980469 935.320312 C 3161.371094 922.441406 2869.460938 1080.441406 2553.359375 1418.269531 C 2221.738281 1772.679688 1959.671875 1946.449219 1755.671875 1946.460938 C 1730.738281 1946.460938 1706.699219 1943.871094 1683.488281 1938.699219 C 1430.230469 1882.238281 1316.609375 1531.78125 1206.730469 1192.859375 C 1107.988281 888.328125 1014.730469 600.679688 828.460938 559.148438 C 699.285156 530.351562 536.117188 623.660156 329.605469 844.371094 C 198.46875 984.519531 63.25 1089.101562 -72.292969 1155.210938 C -196.207031 1215.640625 -323.871094 1245.5 -451.765625 1244.25 C -671.59375 1241.929688 -894.414062 1150.699219 -1132.960938 965.339844 C -1335.910156 807.628906 -1513.359375 609.789062 -1655.941406 450.808594 C -1815.558594 272.851562 -1930.910156 144.28125 -1997.460938 160.511719 C -2020.230469 166.070312 -2036.480469 188.820312 -2047.121094 230.058594 L -2050.75 229.128906 C -2039.730469 186.421875 -2022.589844 162.789062 -1998.351562 156.871094 C -1929.621094 140.109375 -1813.640625 269.371094 -1653.148438 448.308594 C -1372.078125 761.691406 -947.320312 1235.28125 -451.726562 1240.5 C -449.011719 1240.53125 -446.246094 1240.539062 -443.53125 1240.539062 C -179.863281 1240.539062 79.253906 1106.441406 326.863281 841.808594 C 534.367188 620.050781 698.699219 526.390625 829.277344 555.488281 C 1017.640625 597.480469 1111.21875 886.121094 1210.289062 1191.710938 C 1319.851562 1529.621094 1433.140625 1879.039062 1684.300781 1935.039062 C 1896.089844 1982.261719 2179.460938 1812.371094 2550.628906 1415.710938 C 2867.519531 1077.03125 3160.441406 918.691406 3446.140625 931.570312 C 3903.511719 952.230469 4258.96875 1408.441406 4602.730469 1849.640625 C 4910.671875 2244.859375 5201.539062 2618.160156 5535.160156 2628.78125 C 5714.550781 2634.5 5891.980469 2535.449219 6077.71875 2326.019531 L 6080.53125 2328.511719 C 5899.101562 2533.082031 5725.300781 2632.769531 5549.820312 2632.769531 "/>
<path fill-rule="nonzero" fill="rgb(45.307922%, 56.517029%, 82.142639%)" fill-opacity="1" d="M 5625.570312 2664.21875 C 5620.609375 2664.21875 5615.660156 2664.140625 5610.691406 2663.988281 C 5267.269531 2653.550781 4965.691406 2281.480469 4646.398438 1887.550781 C 4290.988281 1449.078125 3923.480469 995.671875 3456.289062 975.089844 C 3168.519531 962.441406 2875.128906 1114.96875 2559.058594 1441.460938 C 2226.871094 1784.589844 1962.929688 1952.890625 1755.839844 1952.910156 C 1729.398438 1952.910156 1703.929688 1950.171875 1679.320312 1944.699219 C 1420.589844 1887.191406 1301.441406 1541.351562 1186.210938 1206.890625 C 1082.691406 906.390625 984.898438 622.550781 794.578125 580.25 C 662.851562 550.988281 497.796875 641.128906 289.933594 855.839844 C 159.191406 990.890625 24.03125 1091.691406 -111.800781 1155.441406 C -236.113281 1213.789062 -364.316406 1242.828125 -493.332031 1241.449219 C -718.660156 1239.21875 -947.925781 1148.179688 -1194.238281 963.148438 C -1403.761719 805.738281 -1587.398438 608.390625 -1734.949219 449.808594 C -1899.949219 272.46875 -2019.199219 144.28125 -2086.601562 161.441406 C -2109.109375 167.148438 -2125.039062 189.25 -2135.300781 228.988281 L -2138.929688 228.058594 C -2128.300781 186.859375 -2111.480469 163.878906 -2087.519531 157.808594 C -2017.960938 140.140625 -1898.089844 268.960938 -1732.199219 447.261719 C -1441.191406 760.019531 -1001.410156 1232.671875 -493.296875 1237.699219 C -225.082031 1240.269531 37.691406 1111.011719 287.238281 853.238281 C 496.09375 637.5 662.34375 547.03125 795.390625 576.589844 C 987.761719 619.351562 1085.878906 904.148438 1189.761719 1205.671875 C 1304.648438 1539.148438 1423.449219 1883.988281 1680.128906 1941.039062 C 1896.140625 1989.03125 2182.738281 1824.769531 2556.371094 1438.851562 C 2873.238281 1111.539062 3167.738281 958.578125 3456.460938 971.339844 C 3925.328125 992 4293.378906 1446.070312 4649.308594 1885.199219 C 4968.039062 2278.429688 5269.101562 2649.851562 5610.808594 2660.238281 C 5791.851562 2665.789062 5969.988281 2570.082031 6155.449219 2367.75 L 6158.210938 2370.28125 C 5977.050781 2567.917969 5802.628906 2664.21875 5625.570312 2664.21875 "/>
<path fill-rule="nonzero" fill="rgb(51.274109%, 58.453369%, 82.913208%)" fill-opacity="1" d="M 5703.238281 2695.871094 C 5698.199219 2695.871094 5693.179688 2695.789062 5688.128906 2695.648438 C 5336.511719 2685.339844 5024.519531 2315.058594 4694.21875 1923.03125 C 4326.371094 1486.449219 3946.011719 1035 3466.988281 1014.300781 C 3176.28125 1001.769531 2881.179688 1148.941406 2565.058594 1464.339844 C 2187.878906 1840.648438 1896.769531 1999.710938 1675.171875 1950.589844 C 1410.828125 1892 1286.101562 1550.640625 1165.46875 1220.511719 C 1057.089844 923.910156 954.726562 643.769531 760.246094 600.671875 C 625.960938 570.898438 458.917969 657.941406 249.617188 866.761719 C 2.46875 1113.351562 -258.859375 1238.328125 -527.199219 1238.328125 C -529.964844 1238.339844 -532.703125 1238.320312 -535.46875 1238.289062 C -766.386719 1236.089844 -1002.230469 1145.199219 -1256.480469 960.421875 C -1472.71875 803.269531 -1662.679688 606.351562 -1815.320312 448.121094 C -1985.878906 271.308594 -2109.109375 143.558594 -2177.371094 161.539062 C -2199.609375 167.390625 -2215.21875 188.839844 -2225.101562 227.128906 L -2228.730469 226.191406 C -2218.480469 186.480469 -2201.988281 164.140625 -2178.328125 157.910156 C -2107.949219 139.351562 -1984.070312 267.789062 -1812.621094 445.519531 C -1511.429688 757.738281 -1056.269531 1229.570312 -535.429688 1234.539062 C -265.359375 1237.21875 -1.988281 1112.488281 246.96875 864.101562 C 457.246094 654.308594 625.394531 566.941406 761.058594 597.011719 C 957.542969 640.550781 1060.25 921.640625 1168.988281 1219.21875 C 1289.269531 1548.398438 1413.648438 1888.789062 1675.980469 1946.929688 C 1896.261719 1995.769531 2186.210938 1837.019531 2562.421875 1461.679688 C 2879.320312 1145.5 3175.308594 997.929688 3467.148438 1010.550781 C 3947.808594 1031.320312 4328.71875 1483.410156 4697.089844 1920.609375 C 5026.828125 2311.980469 5338.289062 2681.648438 5688.238281 2691.898438 C 5870.839844 2697.300781 6049.738281 2604.878906 6234.949219 2409.519531 L 6237.671875 2412.101562 C 6056.789062 2602.890625 5881.78125 2695.871094 5703.238281 2695.871094 "/>
<path fill-rule="nonzero" fill="rgb(35.020447%, 43.818665%, 75.076294%)" fill-opacity="1" d="M 5782.851562 2727.738281 C 5777.691406 2727.738281 5772.550781 2727.671875 5767.378906 2727.519531 C 5407.390625 2717.269531 5084.78125 2348.628906 4743.21875 1958.351562 C 4362.679688 1523.519531 3969.171875 1073.878906 3478.089844 1052.910156 C 3184.210938 1040.410156 2887.640625 1182.308594 2571.410156 1486.851562 C 2238.011719 1807.910156 1970.339844 1965.488281 1757.101562 1965.511719 C 1727.351562 1965.511719 1698.691406 1962.449219 1671.03125 1956.328125 C 1400.96875 1896.640625 1270.578125 1559.621094 1144.480469 1233.691406 C 1031.199219 940.898438 924.203125 664.339844 725.484375 620.410156 C 588.53125 590.140625 419.507812 674.109375 208.710938 877.109375 C 9.332031 1069.109375 -200.515625 1185.070312 -415.011719 1221.75 C -599.3125 1253.269531 -792.828125 1227.070312 -990.183594 1143.859375 C -1351.730469 991.421875 -1666.980469 675.980469 -1897.160156 445.660156 C -2073.390625 269.308594 -2200.730469 141.898438 -2269.78125 160.738281 C -2291.710938 166.71875 -2307 187.539062 -2316.511719 224.390625 L -2320.140625 223.460938 C -2310.261719 185.191406 -2294.109375 163.488281 -2270.761719 157.121094 C -2199.558594 137.75 -2071.628906 265.769531 -1894.511719 443 C -1664.550781 673.109375 -1349.601562 988.25 -988.726562 1140.398438 C -558.808594 1321.660156 -167.976562 1234.660156 206.109375 874.410156 C 417.878906 670.46875 588.039062 586.199219 726.296875 616.75 C 926.976562 661.109375 1034.328125 938.578125 1147.980469 1232.339844 C 1273.71875 1557.339844 1403.738281 1893.410156 1671.839844 1952.671875 C 1896.441406 2002.339844 2189.859375 1849.058594 2568.808594 1484.140625 C 2885.820312 1178.859375 3183.179688 1036.511719 3478.25 1049.171875 C 3970.929688 1070.199219 4364.980469 1520.449219 4746.050781 1955.890625 C 5087.050781 2345.53125 5409.128906 2713.570312 5767.480469 2723.769531 C 5951.738281 2729.160156 6131.289062 2639.921875 6316.28125 2451.359375 L 6318.960938 2453.988281 C 6138.371094 2638.039062 5962.808594 2727.738281 5782.851562 2727.738281 "/>
<path fill-rule="nonzero" fill="rgb(47.853088%, 82.974243%, 91.43219%)" fill-opacity="1" d="M 5864.46875 2759.820312 C 5859.128906 2759.820312 5853.808594 2759.75 5848.460938 2759.601562 C 5479.949219 2749.289062 5146.5 2382.191406 4793.460938 1993.550781 C 4399.941406 1560.320312 3993.03125 1112.351562 3489.621094 1090.988281 C 3192.628906 1078.351562 2894.5 1215.140625 2578.078125 1509.058594 C 2195.300781 1864.609375 1897.261719 2012.738281 1666.910156 1961.960938 C 1390.980469 1901.121094 1254.871094 1568.300781 1123.238281 1246.441406 C 1005 957.308594 893.320312 684.21875 690.261719 639.449219 C 550.644531 608.671875 379.539062 689.589844 167.175781 886.859375 C -33.921875 1073.648438 -246.414062 1185.589844 -464.394531 1219.578125 C -651.679688 1248.769531 -848.902344 1221.140625 -1050.578125 1137.449219 C -1420.078125 984.121094 -1744.019531 671.019531 -1980.550781 442.410156 C -2162.550781 266.5 -2294.050781 139.371094 -2363.878906 159.089844 C -2385.480469 165.179688 -2400.429688 185.371094 -2409.570312 220.820312 L -2413.210938 219.878906 C -2403.691406 183.03125 -2387.890625 161.96875 -2364.890625 155.480469 C -2293.011719 135.210938 -2160.851562 262.929688 -1977.941406 439.710938 C -1741.628906 668.121094 -1417.980469 980.929688 -1049.148438 1133.988281 C -609.726562 1316.328125 -212.703125 1234.601562 164.621094 884.109375 C 377.960938 685.941406 550.171875 604.71875 691.070312 635.789062 C 896.050781 680.988281 1008.089844 954.960938 1126.71875 1245.019531 C 1257.980469 1565.988281 1393.710938 1897.878906 1667.71875 1958.300781 C 1896.78125 2008.800781 2193.730469 1860.960938 2575.53125 1506.308594 C 2892.730469 1211.671875 3191.789062 1074.589844 3489.78125 1087.238281 C 3715.851562 1096.839844 3943.75 1194.730469 4186.5 1386.511719 C 4401.210938 1556.140625 4602.03125 1777.21875 4796.238281 1991.019531 C 5148.71875 2379.058594 5481.648438 2745.578125 5848.558594 2755.851562 C 6034.480469 2761.011719 6214.660156 2675.148438 6399.480469 2493.25 L 6402.109375 2495.917969 C 6221.828125 2673.351562 6045.761719 2759.820312 5864.46875 2759.820312 "/>
<path fill-rule="nonzero" fill="rgb(41.906738%, 53.204346%, 80.41687%)" fill-opacity="1" d="M 5948.140625 2792.160156 C 5942.558594 2792.160156 5936.988281 2792.078125 5931.398438 2791.929688 C 5554.191406 2781.441406 5209.671875 2415.761719 4844.910156 2028.621094 C 4534.730469 1699.378906 4213.988281 1358.941406 3847.550781 1207.710938 C 3432.351562 1036.359375 3019.398438 1142.089844 2585.078125 1530.941406 C 2250.429688 1830.558594 1979.03125 1977.71875 1759.691406 1977.730469 C 1726.179688 1977.730469 1693.921875 1974.300781 1662.800781 1967.449219 C 1380.859375 1905.429688 1238.960938 1576.679688 1101.738281 1258.761719 C 978.472656 973.191406 862.050781 703.46875 654.554688 657.820312 C 512.207031 626.511719 338.980469 704.429688 124.96875 896.050781 C -77.921875 1077.691406 -293.125 1185.660156 -514.671875 1216.949219 C -705.015625 1243.820312 -906.011719 1214.761719 -1112.089844 1130.550781 C -1489.671875 976.28125 -1822.429688 665.410156 -2065.398438 438.429688 C -2253.339844 262.851562 -2389.121094 136.019531 -2459.671875 156.558594 C -2480.921875 162.75 -2495.53125 182.320312 -2504.328125 216.398438 L -2507.960938 215.460938 C -2498.800781 179.988281 -2483.351562 159.550781 -2460.71875 152.960938 C -2388.121094 131.800781 -2251.679688 259.269531 -2062.839844 435.679688 C -1820.078125 662.46875 -1487.609375 973.070312 -1110.671875 1127.078125 C -661.589844 1310.570312 -258.230469 1234.089844 122.46875 893.25 C 337.445312 700.769531 511.785156 622.578125 655.359375 654.160156 C 864.730469 700.21875 981.523438 970.800781 1105.179688 1257.269531 C 1242.03125 1574.328125 1383.550781 1902.179688 1663.609375 1963.789062 C 1897.160156 2015.160156 2197.769531 1872.671875 2582.578125 1528.148438 C 2812.761719 1322.050781 3040.851562 1193.429688 3260.511719 1145.851562 C 3457.738281 1103.121094 3650.238281 1122.21875 3848.988281 1204.25 C 4216.160156 1355.78125 4537.191406 1696.519531 4847.640625 2026.039062 C 5211.851562 2412.609375 5555.851562 2777.738281 5931.5 2788.179688 C 6118.941406 2793.320312 6299.890625 2710.648438 6484.601562 2535.21875 L 6487.179688 2537.941406 C 6307.210938 2708.859375 6130.691406 2792.160156 5948.140625 2792.160156 "/>
</svg>
